<?xml version='1.0' encoding='utf-8'?>
<svg xmlns="http://www.w3.org/2000/svg" enable-background="new 0 0 1236.58 1120.78" version="1.1" viewBox="0 0 1236.6 1120.8"> <style type="text/css"> .st0{fill:#EDEDED;} .st1{fill-rule:evenodd;clip-rule:evenodd;fill:#FDC31F;} .st2{fill-rule:evenodd;clip-rule:evenodd;fill:#F79E12;} .st3{fill-rule:evenodd;clip-rule:evenodd;fill:#F49C11;} .st4{fill-rule:evenodd;clip-rule:evenodd;fill:#ED7B05;} .st5{fill-rule:evenodd;clip-rule:evenodd;fill:#F28C0A;} </style> <ellipse class="st0" cx="618.29" cy="1037.8" rx="618.29" ry="83.02"/> <path class="st1" d="m906.99 877.59c-0.01 0.09-0.01 0.17-0.01 0.26-0.01 0.16-0.01 0.32-0.03 0.48-0.01 0.15-0.02 0.3-0.05 0.45-0.02 0.22-0.06 0.44-0.09 0.66-0.05 0.35-0.12 0.69-0.18 1.03-0.06 0.3-0.12 0.59-0.2 0.88-0.05 0.22-0.1 0.43-0.17 0.65-0.21 0.78-0.47 1.57-0.78 2.34-0.1 0.28-0.22 0.54-0.35 0.82-0.16 0.4-0.35 0.79-0.54 1.19-0.16 0.32-0.32 0.63-0.5 0.94-0.13 0.23-0.25 0.45-0.38 0.68-0.13 0.22-0.26 0.45-0.4 0.67-0.16 0.28-0.33 0.54-0.52 0.82-0.07 0.11-0.16 0.22-0.24 0.34-0.28 0.42-0.58 0.84-0.89 1.26-0.22 0.3-0.44 0.6-0.68 0.89-0.33 0.42-0.68 0.84-1.03 1.26-0.12 0.14-0.22 0.28-0.34 0.41-0.22 0.25-0.45 0.51-0.69 0.77-0.17 0.2-0.37 0.4-0.55 0.6-0.17 0.18-0.36 0.38-0.55 0.56-0.12 0.12-0.23 0.24-0.35 0.35-0.21 0.22-0.41 0.43-0.63 0.62-0.26 0.26-0.53 0.52-0.81 0.77-0.41 0.39-0.84 0.77-1.28 1.15-0.37 0.32-0.74 0.65-1.12 0.96-0.09 0.09-0.2 0.17-0.3 0.25-0.66 0.55-1.35 1.09-2.06 1.64-0.41 0.32-0.83 0.63-1.26 0.94-0.33 0.24-0.67 0.48-1.01 0.73-1.41 1-2.88 1.99-4.44 2.97-0.48 0.31-0.97 0.61-1.47 0.91-0.99 0.61-2.02 1.21-3.06 1.81-0.83 0.47-1.66 0.93-2.52 1.39-1.88 1.01-3.85 2.02-5.9 3.01-0.59 0.29-1.19 0.58-1.8 0.86-0.61 0.29-1.23 0.58-1.85 0.85-0.77 0.36-1.56 0.7-2.36 1.06-0.47 0.21-0.96 0.43-1.45 0.63-0.65 0.28-1.3 0.55-1.96 0.83-0.67 0.28-1.34 0.55-2 0.83-2.03 0.83-4.11 1.65-6.24 2.44-0.71 0.28-1.44 0.54-2.17 0.81-1.74 0.63-3.51 1.27-5.32 1.89-1.21 0.41-2.43 0.83-3.67 1.23-0.78 0.25-1.56 0.51-2.35 0.76-0.68 0.23-1.37 0.45-2.07 0.67-4.09 1.29-8.33 2.53-12.72 3.76-0.85 0.23-1.72 0.47-2.58 0.7-3.48 0.94-7.04 1.85-10.68 2.75-54.73 13.41-128.82 21.64-210.39 21.64-58.4 0-112.97-4.22-159.34-11.54-87.42-13.79-145.73-38.59-145.73-66.9 0-18.29 24.38-35.14 65.23-48.48 23.65-7.72 52.83-14.27 86.01-19.27 23.41-3.51 48.8-6.26 75.65-8.08 10.78-0.74 21.81-1.32 33.03-1.75 14.73-0.56 29.8-0.85 45.15-0.85 38.93 0 76.15 1.88 110.38 5.29 113.94 11.37 194.7 39.84 194.7 73.14 0 0.09 0 0.2-0.01 0.29-0.02 0.32-0.06 0.65-0.08 0.98z"/> <path class="st2" d="m907.06 876.31v102.54c0 0.68-0.03 1.36-0.1 2.03-0.01 0.15-0.02 0.3-0.05 0.45-0.02 0.22-0.06 0.44-0.09 0.66-0.05 0.35-0.12 0.69-0.18 1.03-0.06 0.3-0.12 0.59-0.2 0.88-0.05 0.22-0.1 0.43-0.17 0.65-0.21 0.78-0.47 1.57-0.78 2.34-0.1 0.28-0.22 0.54-0.35 0.82-0.16 0.4-0.35 0.79-0.54 1.19-0.16 0.31-0.32 0.63-0.5 0.94-0.13 0.23-0.25 0.45-0.38 0.68s-0.26 0.45-0.4 0.67c-0.16 0.28-0.33 0.55-0.52 0.82-0.16 0.25-0.32 0.5-0.51 0.75-0.2 0.29-0.4 0.59-0.62 0.88-0.25 0.35-0.53 0.69-0.81 1.05-0.23 0.29-0.46 0.56-0.7 0.85-0.17 0.21-0.35 0.41-0.54 0.63-0.22 0.25-0.45 0.52-0.69 0.77-0.21 0.23-0.44 0.47-0.67 0.71-0.26 0.28-0.53 0.55-0.81 0.82-0.62 0.63-1.28 1.26-1.97 1.88-0.33 0.31-0.69 0.62-1.05 0.92-2.13 1.85-4.54 3.68-7.19 5.47-0.44 0.3-0.89 0.6-1.35 0.89-0.43 0.29-0.88 0.58-1.32 0.85-0.48 0.31-0.97 0.61-1.47 0.91-0.48 0.3-0.98 0.6-1.49 0.89-0.46 0.28-0.93 0.55-1.42 0.83-0.06 0.02-0.1 0.06-0.16 0.09-0.99 0.56-2.02 1.12-3.05 1.68-2.14 1.14-4.39 2.27-6.74 3.38-0.59 0.28-1.19 0.56-1.79 0.83-0.6 0.28-1.21 0.55-1.82 0.83s-1.23 0.54-1.85 0.82c-0.66 0.29-1.32 0.58-2 0.86-1.23 0.52-2.5 1.04-3.78 1.56-0.66 0.27-1.32 0.53-2 0.79-0.67 0.25-1.35 0.52-2.04 0.78-0.6 0.23-1.21 0.46-1.82 0.69-2.21 0.82-4.48 1.62-6.81 2.43-0.69 0.23-1.39 0.47-2.09 0.7-0.75 0.25-1.5 0.5-2.26 0.75-0.75 0.24-1.52 0.5-2.28 0.74-1.34 0.43-2.68 0.85-4.06 1.27-0.29 0.09-0.58 0.17-0.86 0.26-0.7 0.21-1.41 0.43-2.12 0.63-2.71 0.81-5.48 1.6-8.33 2.37-0.51 0.14-1.01 0.28-1.52 0.41-1.82 0.5-3.66 0.98-5.54 1.45-1.59 0.41-3.19 0.82-4.82 1.21-0.02 0.01-0.06 0.01-0.08 0.02-54.73 13.41-128.82 21.64-210.39 21.64-107.52 0-202.04-14.31-256.37-35.91-30.81-12.26-48.7-26.85-48.7-42.53v-102.55c0 28.31 58.32 53.11 145.73 66.9 46.37 7.33 100.94 11.54 159.34 11.54 81.57 0 155.66-8.23 210.39-21.64 3.64-0.9 7.2-1.81 10.68-2.75 0.86-0.23 1.73-0.46 2.58-0.7 4.39-1.22 8.63-2.47 12.72-3.76 0.69-0.22 1.38-0.44 2.07-0.67 0.79-0.24 1.58-0.5 2.35-0.76 1.24-0.4 2.47-0.82 3.67-1.23 1.81-0.62 3.58-1.26 5.32-1.89 0.74-0.26 1.45-0.53 2.17-0.81 2.13-0.79 4.22-1.61 6.24-2.44 0.68-0.26 1.35-0.54 2-0.83 0.66-0.26 1.31-0.54 1.96-0.83 0.48-0.21 0.97-0.41 1.45-0.63 0.81-0.36 1.59-0.7 2.36-1.06 0.62-0.28 1.24-0.56 1.85-0.85s1.21-0.56 1.8-0.86c2.05-0.99 4.02-1.99 5.9-3.01 0.86-0.46 1.69-0.92 2.52-1.39 1.05-0.6 2.07-1.2 3.06-1.81 0.5-0.29 0.99-0.6 1.47-0.91 1.56-0.98 3.03-1.97 4.44-2.97 0.35-0.23 0.68-0.47 1.01-0.73 0.43-0.31 0.84-0.62 1.26-0.94 0.71-0.54 1.41-1.08 2.06-1.64 0.1-0.08 0.21-0.16 0.3-0.25 0.38-0.31 0.75-0.63 1.12-0.96 0.44-0.38 0.86-0.76 1.28-1.15 0.28-0.25 0.54-0.51 0.81-0.77 0.22-0.21 0.44-0.41 0.63-0.62 0.12-0.1 0.23-0.23 0.35-0.35 0.2-0.18 0.38-0.38 0.55-0.56 0.18-0.2 0.38-0.4 0.55-0.6 0.24-0.25 0.47-0.52 0.69-0.77 1.21-1.37 2.27-2.76 3.18-4.16 0.18-0.26 0.36-0.54 0.52-0.82 0.14-0.22 0.28-0.45 0.4-0.67 0.13-0.23 0.25-0.45 0.38-0.68 0.17-0.31 0.33-0.62 0.5-0.94 0.2-0.39 0.38-0.78 0.54-1.19 0.13-0.28 0.24-0.54 0.35-0.82 0.31-0.77 0.58-1.56 0.78-2.34 0.07-0.22 0.13-0.43 0.17-0.65 0.08-0.29 0.14-0.58 0.2-0.88 0.07-0.33 0.14-0.68 0.18-1.03 0.03-0.22 0.07-0.44 0.09-0.66 0.02-0.15 0.03-0.3 0.05-0.45 0.06-0.58 0.09-1.15 0.09-1.74 0.04-0.08 0.04-0.18 0.04-0.27z"/> <path class="st3" d="m601.98 826.19c128.94 0 233.47 20.04 233.47 44.77 0 24.72-104.53 44.76-233.47 44.76s-233.47-20.04-233.47-44.76c0-24.73 104.53-44.77 233.47-44.77z"/> <path class="st1" d="m667.2 647.15c168.49 0 305.07 35.12 305.07 78.44s-136.58 78.44-305.07 78.44c-168.48 0-305.06-35.12-305.06-78.44-0.01-43.32 136.58-78.44 305.06-78.44z"/> <path class="st2" d="m972.26 725.59v102.54c0 18.29-24.37 35.13-65.2 48.47h-0.01c0 0.01-0.01 0.01-0.01 0.01-0.7 0.23-1.41 0.46-2.12 0.68-0.68 0.22-1.35 0.43-2.04 0.65-0.86 0.28-1.74 0.54-2.63 0.81-0.78 0.24-1.58 0.48-2.37 0.71-3.19 0.96-6.47 1.88-9.85 2.79-0.73 0.2-1.45 0.39-2.19 0.59-1.82 0.48-3.66 0.96-5.53 1.42-0.88 0.22-1.75 0.44-2.64 0.66-0.88 0.22-1.77 0.44-2.66 0.65-1.79 0.43-3.59 0.85-5.41 1.27-3.65 0.84-7.37 1.65-11.19 2.43-2.86 0.59-5.75 1.16-8.69 1.74-0.98 0.18-1.96 0.37-2.95 0.55s-1.98 0.37-2.97 0.55-1.99 0.37-3.01 0.54c-2.02 0.36-4.04 0.71-6.08 1.06-3.08 0.52-6.17 1.03-9.32 1.51-3.32 0.53-6.67 1.03-10.07 1.51-1.97 0.29-3.96 0.56-5.97 0.83-1.08 0.15-2.18 0.3-3.27 0.44-2.2 0.29-4.4 0.58-6.62 0.85-9.43 1.16-19.14 2.21-29.07 3.13h-0.02c-8.27 0.76-16.72 1.44-25.31 2.02-0.98 0.07-1.96 0.14-2.95 0.2-1.42 0.09-2.82 0.18-4.24 0.26-1.42 0.09-2.85 0.17-4.26 0.25-5.7 0.33-11.46 0.61-17.28 0.85-1.45 0.06-2.91 0.13-4.38 0.17-2.91 0.12-5.85 0.22-8.8 0.3-1.47 0.05-2.95 0.09-4.44 0.13-1.39 0.03-2.79 0.07-4.18 0.1-1.28 0.03-2.57 0.06-3.86 0.08-1.3 0.02-2.59 0.05-3.88 0.07-6.47 0.1-13.02 0.16-19.6 0.16-1.31 0-2.63 0-3.94-0.01-1.23 0-2.47 0-3.69-0.01-6.01-0.03-11.98-0.13-17.89-0.25-4.2-0.08-8.4-0.2-12.55-0.33-2.19-0.07-4.37-0.14-6.53-0.22-1.89-0.07-3.77-0.15-5.64-0.23-0.07 0-0.14 0-0.22-0.01-2-0.08-4.01-0.17-6-0.28-0.44-0.01-0.86-0.03-1.29-0.06-1.65-0.08-3.29-0.16-4.93-0.25-0.84-0.05-1.68-0.09-2.51-0.14-2.48-0.14-4.93-0.29-7.38-0.44-0.71-0.05-1.44-0.09-2.15-0.14-1.72-0.12-3.43-0.23-5.15-0.35-0.26-0.02-0.53-0.03-0.79-0.06-1.58-0.1-3.15-0.22-4.71-0.35-2.51-0.18-5.01-0.38-7.49-0.58-1.66-0.14-3.32-0.28-4.97-0.43-2.36-0.21-4.72-0.41-7.05-0.63-1.61-0.16-3.21-0.31-4.82-0.47-3.04-0.3-6.05-0.61-9.03-0.93-1.14-0.13-2.28-0.25-3.41-0.38-1.45-0.16-2.89-0.33-4.33-0.5-7.34-0.86-14.52-1.8-21.53-2.8-1.28-0.18-2.56-0.37-3.82-0.55-0.52-0.07-1.01-0.15-1.52-0.22-1.61-0.25-3.23-0.5-4.83-0.75-0.08-0.01-0.16-0.02-0.23-0.03-1.71-0.27-3.4-0.54-5.08-0.82-0.31-0.05-0.61-0.09-0.92-0.15-1.38-0.22-2.74-0.45-4.11-0.69-1.66-0.28-3.32-0.56-4.95-0.86-1.65-0.29-3.27-0.59-4.9-0.89-0.39-0.07-0.79-0.15-1.19-0.22-1.22-0.23-2.43-0.46-3.63-0.69-0.55-0.1-1.11-0.21-1.65-0.32-6.04-1.18-11.89-2.42-17.55-3.71-0.91-0.21-1.82-0.41-2.72-0.63-0.77-0.17-1.54-0.36-2.3-0.54-3.99-0.94-7.87-1.92-11.64-2.93-0.6-0.16-1.19-0.31-1.77-0.47-0.24-0.07-0.47-0.13-0.7-0.2-0.54-0.14-1.08-0.29-1.61-0.44-0.07-0.02-0.13-0.03-0.18-0.05-0.22-0.07-0.44-0.13-0.66-0.18-0.81-0.23-1.61-0.46-2.42-0.68-0.27-0.08-0.52-0.15-0.77-0.22-0.54-0.16-1.08-0.31-1.61-0.47-2.11-0.61-4.17-1.23-6.19-1.85-0.65-0.21-1.28-0.4-1.9-0.6-0.39-0.13-0.77-0.24-1.15-0.37-0.24-0.07-0.48-0.15-0.71-0.23-0.62-0.2-1.24-0.4-1.85-0.6-0.61-0.21-1.22-0.41-1.83-0.61-0.01-0.01-0.02-0.01-0.03-0.01-0.3-0.1-0.6-0.2-0.9-0.3-0.9-0.31-1.79-0.62-2.66-0.92-0.59-0.21-1.18-0.41-1.75-0.62-0.4-0.15-0.81-0.29-1.2-0.43-0.63-0.23-1.26-0.46-1.88-0.69-0.17-0.07-0.36-0.14-0.52-0.2-0.52-0.2-1.04-0.38-1.56-0.58-0.01 0-0.02-0.01-0.03-0.02h-0.01c-0.54-0.21-1.08-0.41-1.61-0.62-0.13-0.05-0.25-0.09-0.37-0.14-0.69-0.28-1.38-0.55-2.05-0.82-0.62-0.25-1.23-0.5-1.84-0.75-0.03-0.01-0.08-0.03-0.13-0.05-0.16-0.07-0.31-0.14-0.47-0.2-0.79-0.33-1.58-0.67-2.34-0.99-0.28-0.12-0.54-0.23-0.81-0.35-1.01-0.44-2-0.89-2.98-1.32-1.39-0.63-2.76-1.28-4.09-1.91-0.18-0.09-0.38-0.18-0.56-0.28-0.36-0.17-0.73-0.36-1.08-0.53-0.13-0.07-0.25-0.14-0.38-0.2-0.38-0.18-0.76-0.38-1.14-0.58-0.05-0.02-0.1-0.06-0.15-0.08-0.54-0.28-1.07-0.55-1.6-0.83-0.25-0.14-0.51-0.28-0.75-0.4-0.79-0.43-1.58-0.86-2.34-1.29-0.48-0.28-0.96-0.54-1.43-0.81-1.23-0.73-2.43-1.45-3.58-2.18-0.38-0.24-0.76-0.48-1.13-0.73-0.38-0.24-0.74-0.48-1.11-0.73-0.13-0.08-0.25-0.17-0.37-0.24-0.24-0.16-0.48-0.32-0.71-0.5-0.01-0.01-0.02-0.01-0.02-0.02-0.35-0.23-0.68-0.47-1.03-0.71-0.5-0.36-0.97-0.7-1.44-1.05-0.39-0.3-0.78-0.59-1.16-0.89-0.44-0.35-0.88-0.69-1.3-1.04-0.26-0.21-0.52-0.43-0.77-0.63-0.05-0.05-0.09-0.08-0.14-0.12-0.37-0.31-0.73-0.62-1.07-0.93-0.35-0.3-0.68-0.61-1.01-0.91-0.33-0.31-0.66-0.61-0.97-0.92-0.31-0.3-0.62-0.61-0.92-0.92-0.3-0.3-0.6-0.61-0.89-0.92-0.28-0.3-0.55-0.6-0.82-0.9-0.31-0.36-0.61-0.7-0.9-1.06-0.23-0.28-0.46-0.56-0.67-0.84-0.22-0.28-0.44-0.56-0.65-0.84-0.32-0.45-0.63-0.89-0.93-1.34-0.15-0.22-0.29-0.44-0.43-0.66-0.2-0.31-0.39-0.63-0.58-0.96-0.18-0.31-0.37-0.63-0.53-0.96-0.48-0.9-0.91-1.81-1.27-2.72-0.09-0.21-0.16-0.43-0.24-0.63-0.41-1.14-0.74-2.28-0.96-3.43-0.09-0.5-0.17-0.99-0.23-1.49-0.02-0.15-0.03-0.29-0.05-0.44-0.03-0.29-0.06-0.56-0.07-0.85-0.02-0.39-0.03-0.78-0.03-1.17v-102.51c0 0.39 0.01 0.78 0.03 1.18 0.01 0.29 0.03 0.56 0.07 0.85 0.01 0.14 0.02 0.26 0.05 0.4v0.03c0.06 0.5 0.14 0.99 0.23 1.49 0.22 1.11 0.52 2.2 0.91 3.29 0.09 0.25 0.18 0.52 0.29 0.77 0.15 0.38 0.31 0.76 0.48 1.14 0.12 0.28 0.25 0.55 0.39 0.83 2.28 4.63 6.15 9.14 11.44 13.48 0.31 0.26 0.63 0.52 0.96 0.77 0.23 0.17 0.46 0.36 0.69 0.54 0.33 0.26 0.68 0.53 1.04 0.78 2.79 2.07 5.9 4.11 9.32 6.11 0.5 0.29 0.99 0.58 1.5 0.85 0.6 0.35 1.21 0.68 1.83 1.03 0.41 0.22 0.83 0.45 1.26 0.67 0.53 0.28 1.06 0.55 1.6 0.83s1.08 0.55 1.64 0.83 1.11 0.55 1.68 0.83c1.13 0.54 2.28 1.08 3.47 1.62 1.18 0.55 2.38 1.08 3.61 1.61 4.31 1.87 8.93 3.69 13.81 5.46 1.28 0.46 2.58 0.92 3.91 1.38 0.79 0.26 1.6 0.54 2.41 0.82 0.73 0.24 1.46 0.5 2.2 0.73 0.84 0.28 1.68 0.55 2.55 0.83 1.28 0.41 2.57 0.82 3.87 1.21 1.66 0.51 3.34 1.01 5.06 1.51 0.78 0.23 1.58 0.46 2.38 0.69 0.79 0.23 1.61 0.45 2.42 0.68 0.82 0.23 1.62 0.45 2.45 0.67 0.82 0.23 1.65 0.45 2.48 0.67 22.43 5.96 48.5 10.99 77.3 14.88 10.14 1.37 20.61 2.59 31.38 3.68 34.23 3.41 71.44 5.29 110.36 5.29 15.35 0 30.43-0.29 45.16-0.85 147.04-5.62 259.87-38.21 259.87-77.58z"/> <path class="st3" d="m667.2 675.46c128.95 0 233.48 20.04 233.48 44.77 0 24.72-104.53 44.76-233.48 44.76-128.94 0-233.47-20.04-233.47-44.76 0-24.73 104.52-44.77 233.47-44.77z"/> <path class="st1" d="m908.5 574.87c0 0.38-0.01 0.75-0.03 1.12v0.01c0 0.16-0.01 0.32-0.03 0.48-0.01 0.18-0.02 0.37-0.05 0.54 0 0.03 0 0.07-0.01 0.1-0.01 0.12-0.02 0.22-0.05 0.32-0.02 0.24-0.06 0.47-0.09 0.7 0 0.02 0 0.03-0.01 0.05v0.06c-0.01 0.06-0.02 0.12-0.03 0.17-0.05 0.26-0.09 0.53-0.16 0.79-0.08 0.4-0.17 0.79-0.28 1.19-0.01 0.02-0.01 0.06-0.02 0.08-0.01 0.06-0.03 0.12-0.05 0.16-0.06 0.2-0.12 0.39-0.17 0.59-0.02 0.09-0.06 0.17-0.09 0.26-0.03 0.12-0.07 0.24-0.12 0.36-0.02 0.07-0.05 0.14-0.08 0.21-0.02 0.09-0.06 0.2-0.1 0.29-0.03 0.1-0.07 0.22-0.11 0.32-0.14 0.38-0.3 0.76-0.47 1.14-0.3 0.69-0.63 1.37-1.01 2.05-0.52 0.97-1.12 1.92-1.79 2.88-0.07 0.1-0.14 0.2-0.22 0.3-0.12 0.18-0.25 0.38-0.39 0.56-0.08 0.1-0.16 0.22-0.25 0.32-0.03 0.06-0.08 0.12-0.14 0.17-0.05 0.08-0.1 0.15-0.16 0.23-0.56 0.71-1.15 1.43-1.79 2.13-0.31 0.36-0.63 0.71-0.97 1.06-0.3 0.31-0.6 0.62-0.92 0.93-0.17 0.18-0.36 0.36-0.54 0.53-0.22 0.22-0.44 0.43-0.66 0.63-0.59 0.55-1.19 1.09-1.82 1.64-0.32 0.28-0.65 0.56-0.98 0.84-0.67 0.55-1.36 1.11-2.09 1.66-0.38 0.3-0.77 0.59-1.18 0.89-1.36 1-2.79 1.99-4.3 2.97-0.45 0.3-0.91 0.6-1.38 0.89-0.43 0.26-0.84 0.53-1.28 0.79-4.55 2.78-9.71 5.47-15.44 8.08-0.68 0.31-1.36 0.62-2.05 0.92s-1.39 0.61-2.1 0.91c-4.24 1.81-8.76 3.58-13.54 5.29-0.79 0.29-1.6 0.58-2.41 0.85-0.89 0.31-1.79 0.62-2.7 0.93-0.75 0.24-1.5 0.5-2.26 0.75-1.68 0.55-3.39 1.11-5.13 1.65-0.78 0.24-1.58 0.48-2.38 0.74-1.83 0.55-3.7 1.11-5.6 1.66-4.49 1.29-9.15 2.55-13.96 3.76-2 0.51-4.02 1-6.08 1.5-4 0.96-8.09 1.89-12.28 2.78v0.01c-25.29 5.43-54.03 9.82-85.26 12.93-34.15 3.39-71.25 5.25-110.06 5.25-15.74 0-31.2-0.31-46.3-0.89-5.86-0.24-11.68-0.51-17.43-0.83-137.89-7.53-241.34-39.02-241.34-76.71 0-18.29 24.37-35.14 65.22-48.48 0.91-0.3 1.81-0.59 2.73-0.88 0.21-0.07 0.41-0.14 0.63-0.2 0 0-0.01 0 0-0.01 25.14-7.93 56.2-14.56 91.41-19.46 11.62-1.62 23.71-3.05 36.17-4.29 33.82-3.32 70.54-5.14 108.9-5.14 153.05 0 279.77 28.97 301.7 66.76 1.38 2.4 2.36 4.82 2.88 7.27 0.06 0.24 0.1 0.47 0.15 0.71 0.07 0.35 0.12 0.69 0.16 1.05 0.03 0.21 0.06 0.41 0.07 0.62 0.08 0.7 0.12 1.38 0.12 2.06z"/> <path class="st2" d="m908.5 574.87v102.73c0 0.32-0.01 0.63-0.03 0.94-0.02 0.45-0.06 0.89-0.12 1.32-0.03 0.28-0.07 0.55-0.12 0.83-0.01 0.09-0.02 0.18-0.05 0.28-0.05 0.26-0.09 0.53-0.16 0.79-0.09 0.48-0.21 0.96-0.35 1.43l-0.17 0.59c-0.07 0.21-0.14 0.41-0.21 0.62-0.66 1.91-1.58 3.8-2.77 5.68-0.14 0.21-0.28 0.43-0.41 0.65-0.05 0.07-0.09 0.14-0.15 0.2-0.03 0.08-0.09 0.16-0.15 0.23-0.63 0.93-1.35 1.87-2.12 2.79-0.29 0.36-0.6 0.71-0.92 1.07-0.31 0.35-0.63 0.7-0.97 1.06-0.28 0.29-0.56 0.58-0.86 0.86-0.07 0.08-0.15 0.16-0.24 0.25-0.32 0.32-0.67 0.65-1.01 0.98-0.37 0.35-0.75 0.69-1.14 1.04-0.22 0.21-0.45 0.4-0.68 0.6-0.22 0.18-0.44 0.37-0.66 0.56-0.36 0.31-0.73 0.61-1.11 0.9-0.85 0.7-1.73 1.37-2.65 2.04-0.13 0.09-0.25 0.18-0.38 0.28-0.33 0.25-0.68 0.5-1.03 0.74-0.02 0.01-0.03 0.02-0.06 0.05-0.02 0.01-0.03 0.02-0.06 0.03-0.61 0.43-1.24 0.85-1.88 1.28-0.16 0.13-0.33 0.23-0.51 0.33-0.03 0.02-0.07 0.05-0.1 0.07-0.13 0.08-0.24 0.16-0.37 0.24-0.37 0.25-0.75 0.48-1.13 0.73-0.15 0.09-0.3 0.18-0.45 0.28-0.52 0.33-1.05 0.66-1.59 0.97l-1.52 0.9c-0.13 0.07-0.24 0.14-0.36 0.21-0.33 0.2-0.67 0.38-1.01 0.58-2.76 1.57-5.74 3.1-8.89 4.6-0.3 0.14-0.59 0.28-0.89 0.41-0.23 0.12-0.47 0.22-0.7 0.33-0.2 0.09-0.4 0.18-0.6 0.28-0.23 0.1-0.47 0.21-0.7 0.32-1.35 0.62-2.73 1.23-4.15 1.83-0.25 0.1-0.51 0.21-0.76 0.32-0.46 0.18-0.92 0.38-1.38 0.58-0.18 0.08-0.36 0.16-0.54 0.23-0.31 0.11-0.62 0.24-0.93 0.37-0.23 0.1-0.47 0.2-0.71 0.3-0.88 0.35-1.75 0.69-2.65 1.05-0.56 0.22-1.13 0.44-1.71 0.66-0.05 0.01-0.1 0.03-0.16 0.06-0.63 0.24-1.27 0.47-1.91 0.73-0.46 0.17-0.91 0.33-1.37 0.5s-0.93 0.33-1.41 0.51c-0.16 0.06-0.33 0.13-0.51 0.18-0.6 0.22-1.22 0.43-1.83 0.65-0.53 0.18-1.06 0.37-1.6 0.55-0.16 0.06-0.32 0.12-0.5 0.17-0.97 0.33-1.94 0.66-2.93 0.98-0.25 0.08-0.51 0.16-0.76 0.25-0.38 0.13-0.76 0.25-1.14 0.37-1.06 0.33-2.13 0.68-3.23 1.03-0.52 0.16-1.05 0.33-1.58 0.5-0.22 0.06-0.44 0.13-0.65 0.2-0.23 0.06-0.46 0.13-0.7 0.21-0.63 0.2-1.28 0.38-1.92 0.58-0.55 0.16-1.12 0.32-1.68 0.5-0.28 0.09-0.55 0.17-0.84 0.25-0.21 0.05-0.4 0.1-0.61 0.17-0.98 0.29-1.96 0.56-2.96 0.84-3.23 0.9-6.54 1.79-9.94 2.65-0.4 0.09-0.81 0.2-1.22 0.31-0.14 0.02-0.28 0.06-0.41 0.1-0.84 0.21-1.68 0.41-2.52 0.62-0.7 0.17-1.42 0.35-2.13 0.52-0.28 0.07-0.56 0.14-0.85 0.21-0.52 0.12-1.04 0.24-1.57 0.37-3.24 0.77-6.54 1.51-9.91 2.25-0.28 0.06-0.54 0.12-0.81 0.16-0.43 0.1-0.85 0.2-1.27 0.28-7.53 1.6-15.37 3.11-23.49 4.52-0.69 0.13-1.38 0.24-2.07 0.36-4.17 0.71-8.42 1.39-12.74 2.06-0.94 0.15-1.9 0.29-2.86 0.43-0.96 0.15-1.91 0.29-2.88 0.43-0.96 0.14-1.92 0.29-2.89 0.41-6.79 0.97-13.73 1.87-20.83 2.7-1.01 0.12-2.03 0.23-3.04 0.35-6.38 0.73-12.89 1.41-19.49 2.02-0.79 0.07-1.59 0.15-2.38 0.22-9.75 0.89-19.72 1.64-29.9 2.27-1.95 0.13-3.91 0.24-5.88 0.35-3.33 0.18-6.69 0.37-10.07 0.52-1.04 0.06-2.09 0.1-3.13 0.15-0.71 0.03-1.44 0.06-2.17 0.09-0.86 0.03-1.73 0.07-2.59 0.12-0.76 0.02-1.53 0.06-2.29 0.08-8.48 0.32-17.07 0.56-25.76 0.7-1.3 0.02-2.59 0.05-3.89 0.06-5.2 0.07-10.44 0.1-15.7 0.1-5.68 0-11.31-0.03-16.91-0.13-0.9 0-1.79-0.02-2.68-0.03-7.85-0.13-15.6-0.33-23.27-0.61-1.56-0.05-3.1-0.12-4.65-0.17-1.64-0.07-3.27-0.14-4.9-0.21-1.45-0.07-2.9-0.13-4.34-0.21-0.33-0.01-0.67-0.02-0.99-0.05-2.17-0.1-4.31-0.22-6.45-0.33-1.36-0.08-2.71-0.15-4.06-0.23-4.08-0.24-8.11-0.5-12.12-0.78-2.26-0.15-4.52-0.32-6.75-0.5-6.32-0.48-12.57-1.01-18.72-1.6h-0.01c-3.56-0.33-7.08-0.69-10.58-1.06-0.77-0.09-1.54-0.17-2.32-0.25-9.92-1.08-19.57-2.29-28.92-3.62-1.13-0.16-2.26-0.32-3.38-0.5-2.42-0.36-4.8-0.71-7.15-1.08-1.01-0.15-2.03-0.31-3.03-0.48-1.8-0.28-3.57-0.58-5.33-0.86-1.23-0.21-2.45-0.41-3.66-0.63-3.74-0.65-7.43-1.31-11.05-2-1.21-0.23-2.41-0.46-3.59-0.69-11.93-2.34-23.18-4.91-33.63-7.66-3.15-0.83-6.21-1.67-9.19-2.53-1-0.29-1.99-0.58-2.97-0.88-0.98-0.29-1.95-0.58-2.91-0.88-0.97-0.3-1.92-0.59-2.87-0.89-1.65-0.52-3.26-1.04-4.85-1.57-1.07-0.36-2.13-0.71-3.17-1.07-0.09-0.03-0.2-0.07-0.29-0.1-1.79-0.61-3.54-1.24-5.25-1.87-0.01 0-0.01-0.01-0.02-0.01-34.69-12.72-55.04-28.21-55.04-44.94v-102.63c0 37.69 103.45 69.18 241.34 76.71 5.75 0.32 11.57 0.59 17.43 0.83 15.1 0.58 30.56 0.89 46.3 0.89 38.81 0 75.92-1.87 110.06-5.25 31.23-3.11 59.97-7.5 85.26-12.93v-0.01c4.19-0.89 8.28-1.82 12.28-2.78 2.06-0.5 4.08-0.99 6.08-1.5 4.82-1.21 9.47-2.47 13.96-3.76 1.9-0.55 3.77-1.11 5.6-1.66 0.81-0.24 1.6-0.48 2.38-0.74 1.74-0.54 3.44-1.09 5.13-1.65 0.76-0.24 1.52-0.5 2.26-0.75 0.91-0.31 1.81-0.62 2.7-0.93 0.81-0.28 1.61-0.55 2.41-0.85 4.78-1.7 9.3-3.48 13.54-5.29 0.71-0.3 1.41-0.6 2.1-0.91 0.69-0.3 1.38-0.61 2.05-0.92 5.73-2.6 10.89-5.3 15.44-8.08 0.44-0.26 0.85-0.53 1.28-0.79 0.47-0.29 0.93-0.59 1.38-0.89 1.51-0.98 2.94-1.97 4.3-2.97 0.4-0.3 0.79-0.59 1.18-0.89 0.73-0.55 1.42-1.11 2.09-1.66 0.33-0.28 0.66-0.56 0.98-0.84 0.63-0.54 1.23-1.08 1.82-1.64 0.23-0.21 0.45-0.41 0.66-0.63 0.18-0.17 0.37-0.35 0.54-0.53 0.32-0.31 0.62-0.62 0.92-0.93 0.33-0.36 0.66-0.71 0.97-1.06 0.63-0.7 1.22-1.42 1.79-2.13 0.06-0.08 0.12-0.15 0.16-0.23 0.06-0.06 0.1-0.12 0.14-0.17 0.09-0.1 0.17-0.22 0.25-0.32 0.14-0.18 0.28-0.38 0.39-0.56 0.08-0.1 0.15-0.2 0.22-0.3 0.67-0.96 1.27-1.91 1.79-2.88 0.38-0.68 0.71-1.36 1.01-2.05 0.17-0.38 0.33-0.76 0.47-1.14 0.05-0.1 0.08-0.21 0.11-0.32 0.05-0.09 0.08-0.2 0.1-0.29 0.03-0.07 0.06-0.14 0.08-0.21 0.05-0.12 0.08-0.24 0.12-0.36 0.03-0.09 0.07-0.17 0.09-0.26 0.06-0.2 0.12-0.39 0.17-0.59 0.01-0.05 0.03-0.1 0.05-0.16 0.01-0.02 0.01-0.05 0.02-0.08 0.1-0.39 0.2-0.78 0.28-1.19 0.07-0.27 0.12-0.53 0.16-0.79 0.01-0.06 0.02-0.12 0.03-0.17v-0.06c0.01-0.01 0.01-0.02 0.01-0.05 0.03-0.23 0.07-0.47 0.09-0.7 0.02-0.1 0.03-0.21 0.05-0.32 0.01-0.03 0.01-0.07 0.01-0.1 0.02-0.17 0.03-0.36 0.05-0.54 0.02-0.16 0.03-0.32 0.03-0.48v-0.01c0.01-0.38 0.02-0.76 0.02-1.13z"/> <path class="st3" d="m603.43 524.74c128.94 0 233.47 20.04 233.47 44.76s-104.53 44.77-233.47 44.77c-128.95 0-233.48-20.04-233.48-44.77 0.01-24.72 104.54-44.76 233.48-44.76z"/> <path class="st1" d="m668.65 332.66c168.48 0 305.07 35.12 305.07 78.43 0 43.32-136.58 78.44-305.07 78.44-168.48 0-305.07-35.12-305.07-78.44 0-43.31 136.58-78.43 305.07-78.43z"/> <path class="st2" d="m973.71 411.1v102.54c0 18.79-25.71 36.05-68.58 49.55-6.12 1.94-12.58 3.79-19.38 5.55-1.94 0.51-3.91 1-5.9 1.5-0.25 0.06-0.5 0.12-0.74 0.18-1.75 0.43-3.53 0.84-5.32 1.27-0.01 0-0.02 0-0.03 0.01-1.01 0.23-2.03 0.46-3.05 0.7-7.2 1.65-14.7 3.19-22.49 4.65-0.05 0-0.09 0.01-0.14 0.02-1.12 0.21-2.25 0.41-3.38 0.62s-2.27 0.4-3.41 0.61c-1.14 0.2-2.29 0.4-3.44 0.6s-2.3 0.39-3.47 0.59c-1.38 0.23-2.75 0.45-4.15 0.68h-0.01c-1.13 0.18-2.26 0.36-3.4 0.54-2.1 0.32-4.2 0.65-6.34 0.97-0.12 0.01-0.22 0.02-0.33 0.05-1.21 0.17-2.42 0.36-3.64 0.53-1.21 0.17-2.43 0.33-3.66 0.51-1.22 0.17-2.45 0.35-3.7 0.51-0.65 0.08-1.28 0.17-1.94 0.25-0.99 0.14-1.99 0.26-3 0.39-0.84 0.1-1.69 0.22-2.55 0.32-1.26 0.16-2.52 0.31-3.78 0.46-0.12 0.02-0.23 0.03-0.35 0.05-2 0.24-4.01 0.47-6.04 0.7-1.71 0.2-3.42 0.38-5.14 0.56-1.3 0.14-2.59 0.28-3.89 0.41-14.47 1.5-29.49 2.72-44.95 3.64-1.96 0.12-3.93 0.22-5.91 0.33-1.74 0.09-3.48 0.18-5.23 0.26-1.03 0.06-2.05 0.1-3.09 0.15-8.97 0.41-18.09 0.74-27.33 0.94-1.15 0.02-2.32 0.05-3.48 0.07-1.42 0.03-2.85 0.06-4.26 0.08-1.3 0.02-2.6 0.05-3.89 0.06-1.3 0.02-2.6 0.03-3.91 0.05-0.96 0.01-1.92 0.02-2.88 0.02-1.26 0.01-2.51 0.02-3.78 0.02-1.7 0.01-3.42 0.01-5.14 0.01-3.95 0-7.89-0.02-11.8-0.06-1.3-0.01-2.6-0.02-3.91-0.05-1.29-0.01-2.59-0.03-3.89-0.06-1.29-0.02-2.58-0.05-3.87-0.07s-2.58-0.05-3.87-0.08c-6.19-0.14-12.33-0.33-18.4-0.56-1.09-0.05-2.19-0.09-3.28-0.13-1.2-0.06-2.38-0.1-3.57-0.16-1.14-0.05-2.28-0.1-3.41-0.16-3.41-0.16-6.8-0.33-10.15-0.53-1.75-0.09-3.49-0.2-5.22-0.3-3.84-0.24-7.65-0.5-11.43-0.77-1.04-0.07-2.06-0.15-3.1-0.23-2.38-0.17-4.76-0.37-7.12-0.55l-2.82-0.24c-4.42-0.37-8.8-0.77-13.13-1.2-4.02-0.39-8-0.82-11.92-1.26-3.18-0.35-6.34-0.71-9.45-1.09-1.76-0.21-3.5-0.43-5.24-0.66-1.89-0.24-3.77-0.48-5.63-0.74-1.41-0.18-2.81-0.38-4.19-0.58-2.91-0.4-5.81-0.82-8.65-1.26-0.96-0.15-1.91-0.29-2.87-0.44-4.78-0.74-9.47-1.51-14.08-2.32-2.76-0.47-5.48-0.97-8.18-1.47-0.13-0.02-0.26-0.05-0.39-0.07-2.56-0.48-5.09-0.98-7.59-1.47-0.88-0.17-1.75-0.36-2.62-0.53-1.44-0.29-2.86-0.59-4.26-0.89-0.3-0.07-0.6-0.13-0.9-0.2-3.41-0.71-6.76-1.46-10.05-2.25-0.03 0-0.08-0.01-0.13-0.02-2.25-0.52-4.45-1.05-6.62-1.6-0.43-0.1-0.85-0.21-1.27-0.31-0.03-0.01-0.07-0.02-0.1-0.02-1.3-0.32-2.59-0.66-3.87-0.99-0.78-0.21-1.56-0.41-2.33-0.61-0.47-0.13-0.94-0.25-1.42-0.38-0.08-0.02-0.16-0.05-0.25-0.07-0.21-0.06-0.43-0.12-0.63-0.17-1.42-0.38-2.81-0.77-4.2-1.16-0.1-0.02-0.21-0.06-0.31-0.09-1.49-0.43-2.96-0.85-4.41-1.28-0.28-0.08-0.56-0.17-0.84-0.25-1.16-0.35-2.32-0.7-3.46-1.05-0.2-0.06-0.38-0.13-0.56-0.17-0.2-0.07-0.39-0.13-0.59-0.18-0.79-0.25-1.59-0.51-2.38-0.76-0.78-0.25-1.57-0.51-2.34-0.76-0.97-0.32-1.91-0.63-2.86-0.96-0.52-0.18-1.04-0.36-1.56-0.53-0.06-0.02-0.12-0.05-0.17-0.07-0.45-0.15-0.9-0.31-1.34-0.46-0.24-0.09-0.48-0.17-0.73-0.26-0.06-0.01-0.12-0.03-0.17-0.06-1.47-0.53-2.93-1.06-4.35-1.59-0.94-0.36-1.88-0.71-2.8-1.07-0.47-0.18-0.94-0.37-1.41-0.55-0.31-0.11-0.61-0.24-0.91-0.36-0.2-0.08-0.38-0.16-0.56-0.23-0.47-0.2-0.94-0.38-1.41-0.58-0.44-0.18-0.86-0.36-1.29-0.53-0.63-0.26-1.24-0.53-1.85-0.79-0.47-0.2-0.93-0.4-1.39-0.61-0.3-0.13-0.59-0.25-0.89-0.39-0.24-0.1-0.48-0.22-0.71-0.32-1.74-0.77-3.43-1.57-5.07-2.37-0.81-0.39-1.59-0.78-2.36-1.18h-0.01c-0.73-0.38-1.44-0.75-2.13-1.12-0.21-0.1-0.4-0.21-0.6-0.31-0.25-0.14-0.5-0.26-0.74-0.41-0.18-0.09-0.37-0.18-0.54-0.29-0.77-0.41-1.52-0.84-2.26-1.27-0.92-0.53-1.82-1.07-2.68-1.6-0.18-0.12-0.36-0.22-0.53-0.33-0.5-0.3-0.98-0.61-1.45-0.92-0.18-0.12-0.37-0.23-0.55-0.36-0.75-0.48-1.49-0.98-2.19-1.47-0.47-0.32-0.92-0.65-1.37-0.98-0.23-0.15-0.45-0.31-0.67-0.48-0.15-0.1-0.3-0.22-0.45-0.33-0.37-0.28-0.73-0.55-1.08-0.83-0.65-0.5-1.27-1-1.88-1.52-0.06-0.05-0.13-0.09-0.18-0.15-0.03-0.02-0.07-0.06-0.09-0.08-0.16-0.14-0.32-0.28-0.48-0.41-0.47-0.4-0.93-0.81-1.38-1.22-0.56-0.52-1.11-1.05-1.64-1.58-0.24-0.23-0.47-0.47-0.7-0.71-0.08-0.07-0.15-0.15-0.22-0.23-0.13-0.13-0.25-0.25-0.37-0.39-0.31-0.32-0.6-0.65-0.88-0.97-0.01 0-0.02-0.02-0.02-0.03-0.1-0.1-0.2-0.22-0.29-0.33-0.15-0.17-0.3-0.36-0.45-0.53-0.1-0.12-0.2-0.23-0.28-0.35-0.09-0.09-0.17-0.2-0.24-0.3-0.16-0.18-0.3-0.37-0.44-0.56-0.15-0.17-0.29-0.36-0.41-0.54-0.08-0.12-0.16-0.22-0.23-0.33-0.12-0.14-0.22-0.29-0.31-0.43-0.12-0.15-0.22-0.3-0.3-0.45-0.07-0.08-0.13-0.16-0.17-0.24-0.14-0.22-0.28-0.43-0.4-0.63-0.01-0.01-0.02-0.02-0.02-0.03-0.06-0.12-0.13-0.22-0.2-0.32-0.12-0.17-0.22-0.35-0.31-0.52 0 0-0.01 0 0-0.01-0.08-0.12-0.15-0.23-0.21-0.36-0.15-0.24-0.28-0.5-0.4-0.75-0.15-0.27-0.28-0.53-0.39-0.78-0.13-0.23-0.23-0.46-0.32-0.69-0.51-1.09-0.91-2.19-1.21-3.29-0.08-0.25-0.15-0.51-0.21-0.76-0.07-0.29-0.14-0.58-0.2-0.86-0.07-0.35-0.14-0.69-0.18-1.04-0.03-0.22-0.07-0.44-0.09-0.66-0.02-0.15-0.03-0.3-0.05-0.45-0.07-0.67-0.1-1.35-0.1-2.03v-102.56c0 0.68 0.03 1.36 0.1 2.03 0.01 0.15 0.02 0.3 0.05 0.45 0.02 0.22 0.06 0.44 0.09 0.66 0.05 0.35 0.12 0.69 0.18 1.04 0.06 0.29 0.13 0.58 0.2 0.86 0.05 0.22 0.1 0.43 0.17 0.65 0.31 1.15 0.73 2.28 1.24 3.41 0.09 0.23 0.2 0.46 0.32 0.69 0.12 0.25 0.24 0.52 0.39 0.78 0.13 0.25 0.25 0.5 0.4 0.75 0.16 0.3 0.33 0.59 0.52 0.89 0.06 0.1 0.13 0.21 0.2 0.32 0.14 0.22 0.28 0.45 0.43 0.67 0.15 0.23 0.3 0.46 0.47 0.69 0.17 0.25 0.36 0.51 0.54 0.76 0.16 0.23 0.33 0.45 0.51 0.67 0.22 0.3 0.46 0.6 0.71 0.9 0.09 0.13 0.2 0.25 0.31 0.38 0 0.01 0.01 0.01 0.01 0.02h0.01c4.83 5.77 12.14 11.31 21.63 16.53 0.41 0.23 0.84 0.46 1.28 0.7 2.91 1.57 6.04 3.1 9.35 4.61 0.62 0.29 1.26 0.58 1.89 0.85 0.63 0.29 1.28 0.56 1.92 0.84 0.4 0.17 0.81 0.35 1.22 0.52 0.63 0.28 1.28 0.54 1.92 0.81 0.66 0.26 1.3 0.53 1.97 0.79 0.67 0.28 1.34 0.54 2 0.79 0.67 0.26 1.35 0.53 2.04 0.78 6.29 2.4 13.08 4.7 20.32 6.89 0.65 0.2 1.3 0.39 1.96 0.59 1.26 0.37 2.51 0.74 3.79 1.11 0.01 0 0.02 0 0.03 0.01 0.24 0.07 0.5 0.14 0.74 0.21 1.37 0.39 2.76 0.78 4.17 1.16 2.41 0.66 4.86 1.3 7.35 1.94 1.36 0.35 2.74 0.69 4.12 1.03 0.06 0.01 0.13 0.03 0.18 0.05 5.9 1.45 12.03 2.83 18.36 4.15 52.42 10.93 119.2 17.48 191.93 17.48 168.53-0.02 305.11-35.15 305.11-78.46z"/> <path class="st3" d="m668.65 360.97c128.95 0 233.48 20.04 233.48 44.77 0 24.72-104.53 44.77-233.48 44.77-128.94 0-233.47-20.05-233.47-44.77s104.52-44.77 233.47-44.77z"/> <path class="st2" d="m894 266.17v102.54c0 0.7-0.03 1.41-0.12 2.1-0.03 0.35-0.08 0.69-0.14 1.04-0.05 0.3-0.09 0.6-0.16 0.9-0.05 0.28-0.12 0.54-0.18 0.81-0.03 0.17-0.08 0.33-0.13 0.5-0.08 0.31-0.16 0.61-0.26 0.91-0.1 0.35-0.22 0.68-0.35 1.01 0 0.02-0.01 0.03-0.01 0.05-0.13 0.33-0.25 0.67-0.4 0.99-0.1 0.26-0.22 0.51-0.33 0.76-0.09 0.22-0.21 0.45-0.32 0.67-0.07 0.16-0.15 0.31-0.23 0.46-0.02 0.06-0.06 0.1-0.08 0.15-0.13 0.25-0.26 0.5-0.41 0.74-0.01 0.05-0.03 0.08-0.07 0.13-0.08 0.16-0.18 0.32-0.29 0.48-0.05 0.1-0.1 0.2-0.17 0.29 0 0.02-0.02 0.05-0.03 0.07-0.16 0.24-0.31 0.48-0.47 0.73-0.07 0.12-0.15 0.24-0.23 0.36-0.15 0.21-0.3 0.43-0.45 0.63-0.01 0.02-0.03 0.06-0.06 0.09-0.01 0.02-0.03 0.05-0.05 0.07-0.17 0.24-0.36 0.48-0.54 0.73-0.13 0.17-0.25 0.35-0.39 0.51-0.1 0.13-0.21 0.25-0.31 0.38-0.07 0.1-0.14 0.2-0.22 0.28-0.15 0.18-0.3 0.37-0.45 0.54-0.06 0.07-0.12 0.13-0.16 0.18-0.1 0.13-0.22 0.25-0.32 0.37-0.17 0.2-0.35 0.39-0.52 0.58-0.24 0.26-0.5 0.54-0.75 0.81-0.21 0.22-0.41 0.43-0.63 0.63-0.25 0.26-0.52 0.52-0.78 0.77-0.22 0.22-0.44 0.43-0.67 0.63-0.28 0.25-0.55 0.5-0.83 0.75-0.06 0.06-0.12 0.12-0.17 0.16-0.13 0.1-0.24 0.22-0.37 0.32-0.24 0.22-0.5 0.44-0.75 0.65-0.08 0.07-0.15 0.13-0.23 0.2-0.31 0.25-0.62 0.51-0.93 0.76-0.07 0.06-0.14 0.12-0.21 0.17-0.17 0.13-0.33 0.27-0.51 0.39-0.58 0.45-1.15 0.9-1.75 1.34-0.22 0.15-0.43 0.31-0.65 0.47-0.82 0.6-1.67 1.19-2.55 1.77-0.16 0.1-0.33 0.21-0.5 0.32l-0.36 0.24c-0.67 0.43-1.34 0.86-2.03 1.28-0.44 0.28-0.89 0.55-1.34 0.82-0.7 0.43-1.42 0.84-2.14 1.26-0.18 0.1-0.36 0.21-0.54 0.31-0.26 0.15-0.54 0.3-0.81 0.45-0.24 0.14-0.48 0.26-0.73 0.4-0.58 0.32-1.16 0.63-1.76 0.94-0.43 0.23-0.85 0.45-1.28 0.68-0.5 0.25-0.99 0.51-1.49 0.75-0.07 0.03-0.13 0.07-0.2 0.1-0.16 0.08-0.32 0.16-0.5 0.24-0.3 0.15-0.59 0.29-0.89 0.44-0.31 0.15-0.61 0.29-0.91 0.44-0.01 0-0.01 0.01-0.01 0.01-0.36 0.16-0.71 0.33-1.07 0.51-1.59 0.75-3.24 1.5-4.93 2.23-0.32 0.14-0.66 0.29-0.98 0.43-0.21 0.09-0.43 0.17-0.62 0.27-1.62 0.69-3.27 1.37-4.98 2.05-0.39 0.16-0.78 0.31-1.18 0.46-0.07 0.03-0.15 0.06-0.22 0.09-0.63 0.24-1.27 0.5-1.91 0.74-0.71 0.28-1.44 0.54-2.17 0.82-0.24 0.09-0.5 0.18-0.74 0.28-1.22 0.44-2.47 0.89-3.72 1.34-0.03 0.01-0.07 0.02-0.1 0.03-0.67 0.23-1.35 0.47-2.03 0.7-1.59 0.54-3.2 1.08-4.85 1.62-0.13 0.03-0.25 0.08-0.39 0.13-0.66 0.21-1.34 0.43-2 0.65-0.1 0.03-0.21 0.07-0.31 0.1-1.01 0.32-2.04 0.63-3.06 0.94-0.51 0.16-1.03 0.32-1.54 0.47-2.44 0.74-4.93 1.46-7.48 2.18-0.01 0-0.03 0-0.06 0.02-0.52 0.14-1.04 0.29-1.57 0.43-1 0.28-2.03 0.55-3.05 0.83-0.79 0.22-1.59 0.43-2.38 0.63-0.23 0.06-0.46 0.12-0.69 0.18-0.56 0.15-1.14 0.3-1.72 0.44-0.81 0.22-1.62 0.43-2.44 0.62-0.82 0.21-1.64 0.4-2.47 0.61-1.61 0.39-3.25 0.78-4.9 1.18v-0.01c-3.42 0.81-6.88 1.6-10.45 2.37-1.58 0.33-3.18 0.67-4.79 1-1.07 0.22-2.14 0.44-3.23 0.66-0.9 0.18-1.81 0.37-2.72 0.54-0.88 0.17-1.76 0.35-2.65 0.52-5.55 1.07-11.24 2.1-17.08 3.06-1.94 0.33-3.88 0.66-5.85 0.96-4.27 0.69-8.64 1.35-13.06 1.98-2.2 0.31-4.41 0.62-6.65 0.92-3.63 0.48-7.32 0.97-11.04 1.42-1.95 0.24-3.89 0.47-5.86 0.7-3.53 0.41-7.1 0.81-10.69 1.19-1.92 0.2-3.86 0.39-5.79 0.59-1.09 0.12-2.2 0.22-3.31 0.32-1.74 0.17-3.48 0.33-5.23 0.5-2.7 0.24-5.4 0.48-8.14 0.7-2.02 0.17-4.06 0.33-6.09 0.5-3.84 0.3-7.72 0.58-11.62 0.84-2.1 0.14-4.2 0.28-6.32 0.4-1.26 0.08-2.52 0.16-3.79 0.23-1.07 0.07-2.14 0.13-3.23 0.18-3.53 0.2-7.06 0.38-10.63 0.54-1.97 0.1-3.94 0.18-5.92 0.26-6.38 0.26-12.85 0.5-19.35 0.66-1.22 0.03-2.44 0.07-3.66 0.09-9.35 0.22-18.82 0.33-28.4 0.35h-1.34c-10.38 0-20.63-0.13-30.76-0.37-2.52-0.06-5.05-0.13-7.56-0.21-2.66-0.08-5.31-0.16-7.95-0.26-1.9-0.07-3.8-0.14-5.7-0.22-0.44-0.01-0.88-0.03-1.3-0.06-2.17-0.09-4.32-0.18-6.46-0.29-0.31-0.01-0.62-0.02-0.93-0.05-2.27-0.1-4.53-0.22-6.77-0.35-0.18-0.01-0.37-0.02-0.55-0.03-2.37-0.13-4.73-0.26-7.09-0.4-0.07 0-0.13-0.01-0.18-0.01-2.42-0.15-4.82-0.3-7.2-0.46-0.06 0-0.12-0.01-0.17-0.01-1.8-0.12-3.57-0.24-5.35-0.37-1.7-0.13-3.41-0.25-5.1-0.38-3.96-0.31-7.89-0.63-11.79-0.97-1.91-0.17-3.81-0.33-5.71-0.52-2.29-0.21-4.57-0.43-6.84-0.66-2.5-0.25-4.99-0.51-7.47-0.77-0.5-0.06-0.98-0.1-1.46-0.16-0.5-0.06-0.98-0.1-1.46-0.16-2.14-0.23-4.26-0.47-6.37-0.73-3.19-0.37-6.35-0.75-9.47-1.15-0.12-0.02-0.23-0.03-0.33-0.05-8.64-1.09-17.05-2.29-25.19-3.59-13.69-2.15-26.66-4.57-38.8-7.22h-0.01c-1.41-0.31-2.8-0.62-4.18-0.93 0 0-0.01-0.01-0.02-0.01-0.89-0.18-1.76-0.39-2.65-0.6-61.96-14.32-100.71-34.77-100.71-57.45v-102.56c0 38.05 109 69.78 253.63 76.93 20.02 0.99 40.74 1.51 61.93 1.51 56.48 0 109.5-3.69 155.36-10.15 22.36-3.16 43.02-6.96 61.55-11.32 4.85-1.14 9.56-2.33 14.11-3.54 1.52-0.4 3.02-0.82 4.49-1.22 1.04-0.3 2.07-0.59 3.1-0.89 1.54-0.44 3.06-0.89 4.56-1.34 1.83-0.54 3.63-1.11 5.4-1.67 1.24-0.39 2.49-0.79 3.7-1.2 0.59-0.18 1.18-0.38 1.76-0.58 0.55-0.2 1.09-0.38 1.64-0.56 2.04-0.69 4.04-1.41 6-2.13 0.7-0.25 1.41-0.52 2.11-0.78 2.09-0.78 4.12-1.58 6.09-2.4 0.62-0.25 1.23-0.51 1.83-0.75 2.71-1.14 5.29-2.29 7.76-3.46 1.13-0.54 2.22-1.07 3.29-1.6 1.7-0.85 3.34-1.72 4.92-2.58 0.53-0.29 1.05-0.58 1.57-0.88 0.51-0.29 1.01-0.59 1.51-0.88 0.51-0.29 0.99-0.59 1.49-0.89 0.48-0.29 0.96-0.59 1.43-0.89 0.96-0.6 1.89-1.2 2.79-1.81 0.86-0.59 1.71-1.19 2.51-1.77 0.41-0.31 0.83-0.62 1.23-0.93 0.39-0.3 0.78-0.61 1.16-0.91 0.38-0.31 0.77-0.62 1.14-0.93 0.35-0.29 0.68-0.58 1.01-0.86 0.74-0.63 1.44-1.28 2.11-1.94 0.32-0.31 0.63-0.62 0.94-0.93 0.23-0.23 0.45-0.46 0.67-0.69 0.38-0.4 0.75-0.81 1.09-1.21 0.28-0.32 0.55-0.63 0.81-0.96 0.24-0.29 0.47-0.56 0.69-0.85 0.06-0.07 0.12-0.15 0.17-0.23 0.22-0.28 0.43-0.56 0.62-0.84 0.23-0.32 0.46-0.65 0.67-0.97 0.22-0.31 0.41-0.63 0.61-0.94 0.01-0.01 0.02-0.03 0.03-0.06 0.18-0.31 0.37-0.61 0.54-0.92 0.02-0.02 0.03-0.05 0.03-0.07 0.17-0.29 0.32-0.59 0.47-0.88 0.02-0.05 0.05-0.08 0.06-0.12 0.16-0.31 0.31-0.61 0.45-0.92 0.12-0.24 0.22-0.48 0.32-0.71 0.1-0.25 0.21-0.52 0.3-0.77 0.33-0.85 0.6-1.7 0.81-2.56 0.09-0.31 0.16-0.62 0.22-0.93 0.07-0.3 0.12-0.6 0.16-0.89 0.03-0.17 0.06-0.36 0.07-0.53 0.07-0.41 0.1-0.82 0.13-1.23 0.02-0.22 0.03-0.44 0.05-0.66 0.01-0.22 0.01-0.47 0.01-0.71z"/> <path class="st1" d="m578.44 187.74c174.29 0 315.57 35.12 315.57 78.44s-141.28 78.44-315.57 78.44c-174.28 0-315.57-35.12-315.57-78.44 0-43.33 141.28-78.44 315.57-78.44z"/> <path class="st3" d="m578.44 216.05c133.39 0 241.51 20.05 241.51 44.77s-108.13 44.77-241.51 44.77-241.51-20.04-241.51-44.77 108.12-44.77 241.51-44.77z"/> <path class="st1" d="m666.84 0c158.28 0 286.58 34.29 286.58 76.6 0 42.3-128.31 76.6-286.58 76.6s-286.59-34.3-286.59-76.6c0-42.31 128.31-76.6 286.59-76.6z"/> <path class="st2" d="M953.42,176.73c0,42.3-128.31,76.6-286.58,76.6s-286.58-34.29-286.58-76.6V76.6c0,42.3,128.31,76.6,286.58,76.6 s286.58-34.29,286.58-76.6V176.73z"/> <path class="st3" d="m666.84 27.65c121.13 0 219.32 19.57 219.32 43.71s-98.19 43.71-219.32 43.71-219.33-19.57-219.33-43.71 98.2-43.71 219.33-43.71z"/> <path class="st4" d="m893.81 268.79c-51.03 12.55-119.13 20.21-193.94 20.21-158.21 0-286.48-34.27-286.58-76.55 48.04 24.31 143.55 40.87 253.55 40.87 76.11 0 145.28-7.93 196.59-20.87 19.6 10.22 30.58 21.65 30.58 33.72 0 0.88-0.08 1.75-0.2 2.62z"/> <path class="st4" d="m891.37 378.9v13.61c0 16.54-20.61 31.89-55.79 44.54-56.94 20.48-152.06 33.89-259.78 33.89-35.95 0-70.52-1.5-102.71-4.24-10.7-0.92-21.15-1.98-31.29-3.16-0.01-0.01-0.02-0.01-0.03-0.01-28.67-3.35-55-7.74-78.18-12.97v-24.4c0.88 0.21 1.76 0.4 2.65 0.61 0.01 0 0.02 0.01 0.02 0.01 1.38 0.3 2.76 0.61 4.17 0.91 12.14 2.65 25.13 5.08 38.82 7.25 8.16 1.29 16.55 2.49 25.19 3.59 0.1 0.01 0.22 0.02 0.33 0.05 3.12 0.4 6.28 0.78 9.47 1.15 2.11 0.25 4.23 0.5 6.37 0.73 0.48 0.06 0.97 0.1 1.46 0.16 0.48 0.06 0.97 0.1 1.46 0.15-0.01 0.01 0 0.01 0 0.01 2.48 0.26 4.97 0.52 7.47 0.77 2.27 0.23 4.55 0.45 6.84 0.66 1.9 0.18 3.8 0.35 5.71 0.52 3.89 0.33 7.82 0.66 11.79 0.97 1.69 0.13 3.4 0.25 5.1 0.38 1.77 0.13 3.55 0.25 5.35 0.37 0.06 0 0.12 0.01 0.17 0.01 2.38 0.16 4.78 0.31 7.2 0.46 0.06 0 0.12 0.01 0.18 0.01 2.35 0.14 4.71 0.28 7.09 0.4 0.18 0.01 0.37 0.02 0.55 0.03 2.25 0.13 4.5 0.24 6.77 0.35 0.31 0.02 0.62 0.03 0.93 0.05 2.14 0.1 4.3 0.2 6.46 0.29 0.43 0.02 0.86 0.05 1.3 0.06 1.9 0.08 3.8 0.15 5.7 0.22 2.64 0.1 5.29 0.18 7.95 0.26 2.51 0.08 5.03 0.15 7.56 0.21 10.13 0.24 20.38 0.37 30.76 0.37h1.34c9.57-0.01 19.04-0.13 28.4-0.35 1.22-0.02 2.44-0.06 3.66-0.09 6.51-0.16 12.97-0.39 19.35-0.66 1.98-0.08 3.95-0.16 5.92-0.26 3.57-0.16 7.11-0.35 10.63-0.54 1.08-0.06 2.15-0.12 3.23-0.18 1.27-0.07 2.53-0.15 3.79-0.23 2.12-0.13 4.23-0.26 6.32-0.4 3.91-0.26 7.79-0.54 11.62-0.84 2.04-0.16 4.08-0.32 6.09-0.5 2.74-0.22 5.45-0.46 8.14-0.7 1.75-0.16 3.49-0.32 5.23-0.5 1.11-0.1 2.21-0.21 3.31-0.32 1.94-0.2 3.87-0.39 5.79-0.59 3.59-0.38 7.17-0.77 10.69-1.19 1.97-0.23 3.92-0.46 5.86-0.7 3.72-0.45 7.41-0.93 11.04-1.42 2.24-0.3 4.45-0.61 6.65-0.92 4.42-0.63 8.79-1.29 13.06-1.98 1.97-0.3 3.92-0.62 5.85-0.96 5.84-0.97 11.53-1.99 17.08-3.06 0.89-0.17 1.77-0.35 2.65-0.52 0.91-0.17 1.82-0.36 2.72-0.54 1.08-0.22 2.15-0.44 3.23-0.66 1.61-0.33 3.21-0.67 4.79-1 5.28-1.14 10.39-2.32 15.34-3.54 0.24-0.06 0.48-0.13 0.74-0.18 0.58-0.14 1.15-0.29 1.73-0.43 0.35-0.09 0.69-0.17 1.03-0.26 0.47-0.12 0.94-0.23 1.42-0.36 0.44-0.12 0.88-0.22 1.31-0.35 0.14-0.02 0.28-0.06 0.4-0.09 0.23-0.07 0.46-0.13 0.69-0.18 0.54-0.14 1.07-0.29 1.6-0.43 0.26-0.07 0.53-0.14 0.78-0.21 1.03-0.28 2.05-0.55 3.05-0.83 0.48-0.14 0.97-0.27 1.45-0.4 0.05-0.01 0.08-0.02 0.12-0.02 0.02-0.02 0.05-0.02 0.06-0.02 2.55-0.71 5.03-1.44 7.48-2.18 0.52-0.15 1.04-0.31 1.54-0.47 0.74-0.23 1.46-0.45 2.19-0.68 0.39-0.12 0.79-0.24 1.19-0.37 0.67-0.22 1.35-0.44 2-0.65 0.14-0.05 0.26-0.09 0.39-0.13 1.65-0.54 3.26-1.08 4.85-1.62 0.68-0.23 1.36-0.47 2.03-0.7 0.03-0.01 0.07-0.02 0.1-0.03 1.26-0.45 2.5-0.9 3.72-1.34 0.24-0.09 0.5-0.18 0.74-0.28 0.73-0.28 1.45-0.54 2.17-0.82 0.65-0.24 1.28-0.5 1.91-0.74 0.07-0.03 0.15-0.06 0.22-0.09 0.39-0.15 0.78-0.3 1.18-0.46 1.71-0.68 3.35-1.36 4.98-2.05 0.2-0.09 0.41-0.17 0.62-0.27 0.32-0.14 0.66-0.29 0.98-0.43 1.69-0.74 3.34-1.49 4.93-2.23 0.36-0.17 0.71-0.35 1.07-0.51 0 0 0-0.01 0.01-0.01 0.3-0.15 0.6-0.29 0.91-0.44 0.3-0.15 0.59-0.29 0.89-0.44 0.08-0.03 0.16-0.08 0.24-0.13 0.08-0.03 0.17-0.08 0.25-0.12 0.07-0.03 0.13-0.07 0.2-0.1 0.36-0.18 0.71-0.36 1.06-0.54 0.15-0.07 0.29-0.14 0.43-0.21 0.43-0.23 0.85-0.45 1.28-0.68 0.6-0.31 1.19-0.62 1.76-0.94 0.24-0.14 0.48-0.27 0.73-0.4 0.26-0.15 0.54-0.3 0.81-0.45 0.18-0.1 0.36-0.21 0.54-0.31 0.73-0.41 1.44-0.83 2.14-1.26 0.45-0.26 0.9-0.54 1.34-0.82 0.69-0.41 1.36-0.85 2.03-1.28l0.36-0.24c0.16-0.12 0.33-0.22 0.5-0.32 0.88-0.59 1.73-1.18 2.55-1.77 0.22-0.16 0.43-0.32 0.65-0.47 0.6-0.44 1.18-0.89 1.75-1.34 0.17-0.13 0.35-0.26 0.51-0.4 0.07-0.05 0.14-0.1 0.21-0.16 0.31-0.25 0.62-0.51 0.93-0.76 0.08-0.07 0.15-0.13 0.23-0.2 0.25-0.21 0.51-0.43 0.75-0.65 0.13-0.1 0.24-0.22 0.37-0.32 0.06-0.05 0.12-0.1 0.17-0.16 0.28-0.25 0.55-0.5 0.83-0.75 0.23-0.21 0.45-0.41 0.67-0.63 0.26-0.25 0.53-0.51 0.78-0.77 0.48-0.48 0.94-0.96 1.38-1.44 0.17-0.18 0.35-0.38 0.52-0.58 0.1-0.12 0.22-0.24 0.32-0.37 0.05-0.06 0.1-0.12 0.16-0.18 0.15-0.17 0.3-0.36 0.45-0.54 0.08-0.08 0.15-0.17 0.22-0.28 0.1-0.13 0.21-0.25 0.31-0.38 0.14-0.16 0.26-0.33 0.39-0.51 0.2-0.26 0.39-0.53 0.59-0.79 0.02-0.03 0.05-0.07 0.06-0.09 0.15-0.21 0.3-0.43 0.45-0.63 0.08-0.12 0.16-0.24 0.23-0.36 0.16-0.24 0.31-0.48 0.47-0.73 0.01-0.02 0.03-0.05 0.03-0.07 0.07-0.09 0.13-0.18 0.17-0.29 0.1-0.16 0.21-0.32 0.29-0.48 0.03-0.05 0.06-0.08 0.07-0.13 0.15-0.24 0.29-0.48 0.41-0.74 0.05-0.05 0.08-0.1 0.11-0.15z"/> <path class="st4" d="m908.5 574.87c0 0.38-0.01 0.75-0.03 1.12v0.01c0 0.16-0.01 0.32-0.03 0.48-0.01 0.18-0.02 0.37-0.05 0.54 0 0.03 0 0.07-0.01 0.1-0.01 0.12-0.02 0.22-0.05 0.32-0.02 0.24-0.06 0.47-0.09 0.7 0 0.02 0 0.03-0.01 0.05-0.05 0.35-0.12 0.69-0.2 1.03-0.08 0.4-0.17 0.79-0.28 1.19-0.01 0.03-0.01 0.06-0.02 0.08-0.01 0.06-0.03 0.12-0.05 0.16-0.08 0.28-0.17 0.56-0.26 0.85-0.06 0.18-0.13 0.38-0.2 0.56-0.02 0.09-0.06 0.2-0.1 0.29-0.03 0.12-0.07 0.22-0.11 0.32-0.14 0.38-0.3 0.76-0.47 1.14-0.31 0.69-0.65 1.37-1.01 2.05-0.59 1.07-1.26 2.13-2 3.18-0.25 0.35-0.51 0.7-0.78 1.06-0.54 0.7-1.12 1.39-1.73 2.1-55.95 16.9-139.28 27.61-232.35 27.61-45.56 0-88.79-2.57-127.61-7.17-2.33-0.28-4.63-0.56-6.91-0.85-78.31-9.91-137.69-28.19-160.43-50.31-6.6-6.42-10.11-13.16-10.11-20.1v-15c0.91-0.3 1.81-0.59 2.73-0.88 0.21-0.07 0.43-0.14 0.63-0.21-0.01 0.01 0 0.01 0 0.01 0.09 0.17 0.2 0.35 0.31 0.52 0.07 0.1 0.14 0.21 0.2 0.32 0 0.01 0.01 0.02 0.02 0.03 0.18 0.29 0.38 0.59 0.58 0.88 0.2 0.3 0.4 0.59 0.61 0.88 0.21 0.3 0.43 0.59 0.65 0.88 0.14 0.2 0.28 0.38 0.44 0.56 0.07 0.1 0.15 0.21 0.24 0.3 0.08 0.11 0.17 0.23 0.28 0.35 0.15 0.17 0.3 0.36 0.45 0.53 0.09 0.12 0.18 0.23 0.29 0.33 0.15 0.17 0.31 0.36 0.47 0.53 0.13 0.16 0.28 0.32 0.43 0.47 0.12 0.14 0.24 0.26 0.37 0.39 0.07 0.07 0.15 0.15 0.22 0.23 0.23 0.24 0.46 0.48 0.7 0.71 0.53 0.53 1.07 1.06 1.64 1.58 0.45 0.41 0.91 0.82 1.38 1.22 0.16 0.14 0.32 0.28 0.48 0.41 0.02 0.02 0.06 0.06 0.09 0.08 0.06 0.06 0.12 0.1 0.18 0.15 0.61 0.52 1.23 1.03 1.88 1.52 0.36 0.28 0.71 0.55 1.08 0.83 0.15 0.12 0.3 0.23 0.45 0.33 0.22 0.17 0.44 0.33 0.67 0.48 0.45 0.33 0.9 0.66 1.37 0.98 0.7 0.5 1.44 0.99 2.19 1.47 0.18 0.13 0.37 0.24 0.55 0.36 0.47 0.31 0.96 0.62 1.45 0.92 0.17 0.1 0.36 0.22 0.53 0.33 0.86 0.53 1.76 1.07 2.68 1.6 0.91 0.52 1.84 1.04 2.8 1.56 0.44 0.24 0.89 0.48 1.34 0.73 0.7 0.37 1.42 0.75 2.15 1.11 0.77 0.4 1.56 0.79 2.35 1.19 1.64 0.81 3.33 1.6 5.07 2.37 0.23 0.1 0.47 0.22 0.71 0.32 0.3 0.14 0.59 0.26 0.89 0.39 0.46 0.21 0.92 0.41 1.39 0.61 0.1 0.05 0.21 0.09 0.31 0.13 0.93 0.4 1.88 0.81 2.83 1.2 0.46 0.2 0.93 0.38 1.41 0.58 0.35 0.14 0.7 0.28 1.06 0.41l0.41 0.17c0.46 0.18 0.93 0.37 1.41 0.55 0.92 0.36 1.85 0.71 2.8 1.07 1.43 0.53 2.88 1.06 4.35 1.59 0.06 0.02 0.12 0.05 0.17 0.06 0.24 0.09 0.48 0.17 0.73 0.26 0.51 0.17 1 0.35 1.51 0.53 0.52 0.17 1.04 0.35 1.56 0.53 0.94 0.32 1.89 0.63 2.86 0.96 0.77 0.25 1.56 0.51 2.34 0.76 0.79 0.25 1.59 0.51 2.38 0.76 0.2 0.06 0.39 0.12 0.59 0.18 0.18 0.05 0.37 0.12 0.56 0.17 1.14 0.35 2.29 0.7 3.46 1.05 0.28 0.08 0.56 0.17 0.84 0.25 1.45 0.43 2.93 0.85 4.41 1.28h0.01c0.1 0.03 0.21 0.06 0.3 0.09 1.38 0.39 2.79 0.78 4.2 1.16 0.21 0.06 0.43 0.12 0.63 0.17 0.09 0.02 0.17 0.05 0.25 0.07 0.47 0.13 0.94 0.25 1.42 0.38 0.77 0.2 1.54 0.4 2.33 0.61 0.43 0.1 0.85 0.22 1.29 0.32 0.58 0.15 1.18 0.3 1.76 0.45 0.3 0.08 0.61 0.16 0.92 0.24 0.41 0.1 0.84 0.21 1.27 0.31 0.48 0.12 0.97 0.24 1.45 0.36 1.7 0.43 3.43 0.83 5.17 1.24 0.05 0.01 0.09 0.02 0.13 0.02 3.28 0.77 6.64 1.52 10.05 2.25 0.3 0.07 0.6 0.13 0.9 0.2 1.41 0.3 2.82 0.6 4.26 0.89 0.86 0.17 1.74 0.36 2.62 0.53 2.5 0.5 5.03 0.99 7.59 1.47 0.13 0.02 0.26 0.05 0.39 0.07 2.7 0.51 5.43 0.99 8.18 1.47 4.61 0.81 9.3 1.58 14.08 2.32 0.96 0.15 1.91 0.29 2.87 0.44 2.86 0.43 5.74 0.85 8.65 1.26 1.38 0.2 2.79 0.39 4.19 0.58 1.87 0.25 3.74 0.5 5.63 0.74 1.74 0.23 3.48 0.45 5.24 0.66 3.11 0.38 6.27 0.75 9.45 1.09 3.93 0.44 7.9 0.85 11.92 1.26 4.33 0.43 8.71 0.83 13.13 1.2l2.82 0.24c2.36 0.18 4.73 0.38 7.12 0.55 1.04 0.08 2.06 0.16 3.1 0.23 3.78 0.28 7.59 0.53 11.43 0.77 1.73 0.1 3.47 0.21 5.22 0.3 3.35 0.2 6.74 0.37 10.15 0.53 1.13 0.06 2.27 0.12 3.41 0.16 1.19 0.06 2.37 0.1 3.57 0.16 1.09 0.03 2.19 0.08 3.28 0.13 6.07 0.23 12.21 0.43 18.4 0.56 1.29 0.03 2.58 0.06 3.87 0.08s2.58 0.05 3.87 0.07 2.59 0.05 3.89 0.06c1.29 0.02 2.59 0.03 3.91 0.05 3.91 0.03 7.85 0.06 11.8 0.06 1.72 0 3.43 0 5.14-0.01 1.27 0 2.52-0.01 3.78-0.02 0.96 0 1.92-0.01 2.88-0.02 1.3-0.01 2.6-0.02 3.91-0.05 1.3-0.01 2.59-0.03 3.89-0.06 1.42-0.02 2.85-0.05 4.26-0.08 1.16-0.02 2.33-0.05 3.48-0.07 9.24-0.21 18.35-0.53 27.33-0.94 1.04-0.05 2.06-0.09 3.09-0.15 1.75-0.08 3.49-0.17 5.23-0.26 1.98-0.1 3.95-0.22 5.91-0.33 15.46-0.92 30.48-2.14 44.95-3.64 1.3-0.14 2.59-0.28 3.89-0.41 1.72-0.18 3.43-0.37 5.14-0.56 2.03-0.23 4.03-0.46 6.04-0.7 0.12-0.01 0.23-0.02 0.35-0.05 1.26-0.15 2.52-0.3 3.78-0.46 0.85-0.1 1.7-0.22 2.55-0.32 1-0.13 2-0.25 3-0.39 0.66-0.08 1.29-0.17 1.94-0.25 1.24-0.16 2.48-0.33 3.7-0.51 1.23-0.17 2.45-0.33 3.66-0.51 1.22-0.17 2.43-0.36 3.64-0.53 0.12-0.02 0.22-0.03 0.33-0.05 2.13-0.32 4.24-0.65 6.34-0.97 1.14-0.18 2.27-0.36 3.4-0.54h0.01c1.39-0.23 2.77-0.45 4.15-0.68 1.16-0.2 2.32-0.39 3.47-0.59s2.3-0.4 3.44-0.6c1.14-0.21 2.28-0.4 3.41-0.61s2.26-0.41 3.38-0.62c0.05-0.01 0.09-0.02 0.14-0.02 7.78-1.46 15.29-3.02 22.49-4.65 1.03-0.24 2.04-0.47 3.05-0.7 0.01-0.01 0.02-0.01 0.03-0.01 1.8-0.43 3.57-0.84 5.32-1.27 0.24-0.07 0.48-0.13 0.74-0.18 1.99-0.5 3.96-0.99 5.9-1.5 6.79-1.77 13.26-3.63 19.38-5.55 1.38 2.4 2.36 4.82 2.88 7.27 0.06 0.24 0.1 0.47 0.15 0.71 0.06 0.35 0.12 0.7 0.16 1.05 0.03 0.21 0.06 0.41 0.07 0.62 0.02 0.68 0.06 1.36 0.06 2.04z"/> <path class="st4" d="m904.53 690.05v8.5c0 5.44-2.02 10.73-5.85 15.82-12.06 16.05-42.2 30.14-84.34 40.62-0.01 0.01-0.02 0.01-0.03 0.01-51.01 12.72-119.63 20.18-195.07 19.54-30.45-0.26-59.79-1.83-87.31-4.49-74.65-7.23-135.9-22.58-169.64-42.03-0.05-0.02-0.1-0.06-0.15-0.09-3.14-1.82-6.06-3.67-8.71-5.56 1.72 0.62 3.47 1.26 5.25 1.87 0.09 0.03 0.2 0.07 0.29 0.1 1.05 0.36 2.1 0.71 3.17 1.06 1.59 0.53 3.2 1.06 4.85 1.58 0.94 0.3 1.9 0.59 2.87 0.89s1.94 0.59 2.91 0.88c0.98 0.3 1.97 0.59 2.97 0.88 3 0.86 6.06 1.7 9.19 2.53 10.45 2.75 21.69 5.32 33.63 7.66 1.19 0.23 2.38 0.46 3.59 0.69 3.62 0.69 7.3 1.36 11.05 2 1.21 0.22 2.43 0.43 3.66 0.63 1.76 0.29 3.54 0.59 5.33 0.86 1 0.17 2.02 0.33 3.03 0.48 2.35 0.37 4.73 0.73 7.15 1.08 1.12 0.17 2.25 0.33 3.38 0.5 9.34 1.32 19 2.53 28.92 3.62 0.77 0.08 1.54 0.17 2.32 0.25 3.49 0.37 7.02 0.73 10.58 1.06h0.01c6.15 0.59 12.4 1.12 18.72 1.6 2.23 0.17 4.49 0.35 6.75 0.5 4.01 0.29 8.04 0.54 12.12 0.78 1.35 0.08 2.7 0.15 4.06 0.23 2.14 0.12 4.29 0.23 6.45 0.33 0.32 0.02 0.66 0.03 0.99 0.05 1.44 0.08 2.89 0.14 4.34 0.21 1.62 0.07 3.26 0.14 4.9 0.21 1.56 0.06 3.1 0.13 4.65 0.17 7.67 0.28 15.43 0.48 23.27 0.61 0.9 0.01 1.79 0.03 2.68 0.03 5.6 0.09 11.23 0.13 16.91 0.13 5.26 0 10.51-0.03 15.7-0.1 1.3-0.01 2.6-0.03 3.89-0.06 8.69-0.14 17.28-0.38 25.76-0.7 0.76-0.02 1.53-0.06 2.29-0.08 0.86-0.05 1.73-0.08 2.59-0.12 0.73-0.03 1.45-0.06 2.17-0.09 1.05-0.05 2.1-0.09 3.13-0.15 3.38-0.15 6.74-0.33 10.07-0.52 1.97-0.1 3.93-0.22 5.88-0.35 10.17-0.63 20.15-1.38 29.9-2.27 0.79-0.07 1.59-0.14 2.38-0.22 6.6-0.61 13.11-1.29 19.49-2.02 1.01-0.12 2.03-0.23 3.04-0.35 7.1-0.83 14.04-1.73 20.83-2.7 0.97-0.13 1.94-0.28 2.89-0.41 0.97-0.14 1.92-0.28 2.88-0.43 0.96-0.14 1.91-0.28 2.86-0.43 4.32-0.67 8.57-1.35 12.74-2.06 0.69-0.12 1.38-0.23 2.07-0.36 8.12-1.41 15.96-2.91 23.49-4.52 0.69-0.15 1.38-0.29 2.07-0.44 3.36-0.74 6.67-1.47 9.91-2.25 0.53-0.13 1.05-0.25 1.57-0.37 0.29-0.07 0.58-0.14 0.85-0.21 0.71-0.17 1.43-0.35 2.13-0.52 0.84-0.21 1.68-0.41 2.52-0.62 0.14-0.05 0.28-0.08 0.41-0.1 0.4-0.1 0.82-0.21 1.22-0.31 3.4-0.86 6.72-1.75 9.94-2.65 0.75-0.21 1.49-0.43 2.22-0.63 0.25-0.08 0.5-0.15 0.74-0.21 0.38-0.12 0.76-0.22 1.13-0.33 0.12-0.03 0.22-0.06 0.32-0.09 0.56-0.17 1.13-0.33 1.68-0.5 0.65-0.2 1.29-0.38 1.92-0.58 0.24-0.08 0.47-0.15 0.7-0.21 0.21-0.07 0.43-0.14 0.65-0.2 0.38-0.13 0.77-0.24 1.15-0.37 0.15-0.05 0.29-0.09 0.43-0.13 1.09-0.35 2.17-0.69 3.23-1.03 0.26-0.09 0.53-0.17 0.79-0.26 0.37-0.12 0.74-0.23 1.11-0.36 0.84-0.29 1.67-0.56 2.5-0.84 0.15-0.05 0.29-0.09 0.43-0.14 0.17-0.06 0.33-0.12 0.5-0.17 0.54-0.18 1.07-0.37 1.6-0.55 0.61-0.22 1.23-0.43 1.83-0.65 0.17-0.06 0.35-0.13 0.51-0.18 0.47-0.17 0.94-0.33 1.41-0.51 0.32-0.12 0.65-0.23 0.97-0.36 0.14-0.05 0.28-0.09 0.4-0.14 0.65-0.25 1.28-0.48 1.91-0.73 0.06-0.02 0.12-0.05 0.16-0.06 0.58-0.22 1.14-0.44 1.71-0.66 0.9-0.36 1.77-0.7 2.65-1.05 0.24-0.1 0.48-0.2 0.71-0.3 0.31-0.13 0.62-0.25 0.93-0.37 0.18-0.07 0.36-0.15 0.54-0.23 0.46-0.2 0.92-0.39 1.38-0.58 0.41-0.18 0.83-0.36 1.24-0.54 1.24-0.53 2.47-1.07 3.66-1.61 0.23-0.12 0.47-0.22 0.7-0.32 0.2-0.09 0.4-0.18 0.6-0.28 0.23-0.12 0.47-0.22 0.7-0.33 0.3-0.14 0.59-0.28 0.89-0.41 3.16-1.51 6.12-3.04 8.89-4.6 0.35-0.2 0.68-0.38 1.01-0.58 0.12-0.07 0.23-0.14 0.36-0.21l1.52-0.9c0.38-0.23 0.76-0.46 1.13-0.69 0.43-0.26 0.85-0.53 1.27-0.79 0.27-0.15 0.52-0.32 0.77-0.48 0.13-0.08 0.24-0.16 0.37-0.24 0.03-0.02 0.07-0.05 0.1-0.07 0.16-0.1 0.33-0.22 0.5-0.33h0.01c0.63-0.43 1.27-0.85 1.88-1.28 0.02-0.01 0.03-0.02 0.06-0.03 0.02-0.02 0.03-0.03 0.06-0.05 0.35-0.24 0.69-0.48 1.03-0.74 0.13-0.09 0.25-0.18 0.38-0.28 0.24-0.17 0.48-0.35 0.71-0.54 0.37-0.28 0.73-0.54 1.07-0.82 0.36-0.28 0.7-0.55 1.04-0.83 0.68-0.55 1.34-1.11 1.97-1.66 0.96-0.84 1.85-1.68 2.7-2.52 0.84-0.85 1.64-1.7 2.37-2.56 0.98-1.14 1.85-2.29 2.65-3.46 0.23-0.23 0.41-0.53 0.59-0.81z"/> <path class="st4" d="m891.64 900.98c-54.82 14.33-129.24 23.73-211.23 24.92-168.48 2.45-305.07-30.68-305.07-74v-0.89c38.1 32.15 154.35 55.55 291.85 55.55 97.31 0 183.98-11.71 239.84-29.96-0.12 8.52-5.52 16.71-15.39 24.38z"/> <path class="st5" d="m795.35 323.14v102.54c60.75-14.3 98.66-34.53 98.66-56.97v-102.54c0 22.44-37.91 42.67-98.66 56.97z"/> <path class="st5" d="m798.75 635.11v102.54c67.06-14.39 109.75-36.04 109.75-60.25v-102.54c0 24.22-42.68 45.87-109.75 60.25z"/> <path class="st5" d="m812.37 933.11v102.54c58.33-14.29 94.68-34.45 94.68-56.8v-102.54c0 22.35-36.35 42.51-94.68 56.8z"/> <path class="st5" d="m448.15 780.17v102.54c-0.6-0.16-1.19-0.31-1.77-0.47-0.24-0.07-0.47-0.13-0.7-0.2-0.54-0.15-1.08-0.29-1.61-0.44-0.07-0.02-0.13-0.03-0.18-0.05-0.22-0.07-0.44-0.13-0.66-0.18-0.81-0.23-1.61-0.46-2.42-0.68-0.27-0.08-0.52-0.15-0.77-0.22-0.54-0.16-1.08-0.31-1.61-0.47-2.11-0.61-4.17-1.23-6.19-1.85-0.65-0.21-1.28-0.4-1.9-0.6-0.39-0.13-0.77-0.24-1.15-0.37-0.24-0.08-0.48-0.15-0.71-0.23-0.62-0.2-1.24-0.4-1.85-0.6-0.61-0.21-1.22-0.41-1.83-0.61-0.01-0.01-0.02-0.01-0.03-0.01-0.3-0.1-0.6-0.21-0.9-0.3-0.9-0.31-1.79-0.62-2.66-0.92-0.59-0.21-1.18-0.41-1.75-0.62-0.4-0.15-0.81-0.29-1.2-0.43-0.63-0.23-1.26-0.46-1.88-0.69-0.17-0.07-0.36-0.14-0.52-0.2-0.53-0.2-1.06-0.39-1.59-0.6h-0.01c-0.54-0.21-1.08-0.41-1.61-0.62-0.13-0.05-0.24-0.09-0.37-0.14-0.69-0.28-1.38-0.55-2.05-0.82-0.62-0.25-1.23-0.5-1.84-0.75-0.03-0.01-0.08-0.03-0.13-0.05-0.16-0.07-0.31-0.14-0.47-0.2-0.79-0.33-1.58-0.67-2.34-0.99-0.28-0.12-0.54-0.23-0.81-0.35-1.01-0.44-2-0.89-2.98-1.32-1.39-0.63-2.76-1.28-4.09-1.91-0.18-0.09-0.38-0.18-0.56-0.28-0.37-0.18-0.73-0.36-1.08-0.53-0.13-0.07-0.25-0.14-0.38-0.2-0.38-0.2-0.76-0.38-1.14-0.58-0.05-0.02-0.1-0.06-0.15-0.08-0.35-0.18-0.69-0.36-1.04-0.54-0.2-0.09-0.38-0.2-0.56-0.29-0.25-0.14-0.51-0.28-0.75-0.4-0.79-0.43-1.58-0.86-2.34-1.29-0.48-0.28-0.96-0.54-1.43-0.81-1.23-0.73-2.43-1.45-3.58-2.18-0.38-0.24-0.76-0.48-1.13-0.73-0.38-0.24-0.74-0.48-1.11-0.73-0.13-0.08-0.25-0.17-0.37-0.25-0.24-0.16-0.48-0.32-0.71-0.48-0.01-0.01-0.02-0.01-0.02-0.02-0.35-0.23-0.69-0.47-1.03-0.71-0.5-0.36-0.97-0.7-1.44-1.05-0.39-0.3-0.78-0.59-1.16-0.89-0.44-0.35-0.88-0.69-1.3-1.04-0.26-0.21-0.52-0.43-0.77-0.63-0.05-0.05-0.09-0.08-0.14-0.12-0.37-0.31-0.73-0.62-1.07-0.93-0.35-0.3-0.68-0.61-1.01-0.91-0.33-0.31-0.66-0.61-0.97-0.92-0.31-0.3-0.62-0.61-0.92-0.92-0.3-0.3-0.6-0.61-0.89-0.92-0.28-0.3-0.55-0.6-0.82-0.9-0.31-0.36-0.61-0.7-0.9-1.06-0.23-0.28-0.46-0.56-0.67-0.84-0.22-0.28-0.44-0.56-0.65-0.84-0.32-0.45-0.63-0.89-0.93-1.34-0.15-0.22-0.29-0.44-0.43-0.66-0.2-0.31-0.39-0.63-0.58-0.96-0.18-0.31-0.37-0.63-0.53-0.96-0.48-0.9-0.91-1.81-1.27-2.72-0.09-0.21-0.16-0.43-0.24-0.63-0.41-1.14-0.74-2.28-0.96-3.43-0.09-0.5-0.17-0.99-0.23-1.49-0.02-0.15-0.03-0.29-0.05-0.44-0.03-0.29-0.06-0.56-0.07-0.85-0.02-0.39-0.03-0.78-0.03-1.17v-102.51c0 0.39 0.01 0.78 0.03 1.18 0.01 0.29 0.03 0.58 0.07 0.85 0.01 0.14 0.02 0.26 0.05 0.4v0.03c0.06 0.5 0.14 0.99 0.23 1.49 0.22 1.11 0.52 2.2 0.91 3.29 0.08 0.25 0.18 0.52 0.29 0.77 0.15 0.38 0.31 0.76 0.48 1.14 0.12 0.28 0.25 0.55 0.39 0.83 2.28 4.63 6.15 9.14 11.44 13.48 0.31 0.25 0.63 0.52 0.96 0.77 0.23 0.17 0.46 0.36 0.69 0.54 0.33 0.26 0.68 0.52 1.04 0.78 2.79 2.07 5.9 4.11 9.32 6.11 0.5 0.29 0.99 0.58 1.5 0.85 0.6 0.35 1.21 0.68 1.83 1.03 0.41 0.22 0.83 0.44 1.26 0.67 0.53 0.28 1.06 0.55 1.6 0.83s1.08 0.55 1.64 0.83 1.12 0.55 1.68 0.83c1.13 0.54 2.28 1.08 3.47 1.62 1.18 0.54 2.37 1.08 3.61 1.61 4.31 1.87 8.93 3.69 13.81 5.46 1.28 0.46 2.58 0.92 3.91 1.38 0.79 0.26 1.6 0.54 2.41 0.82 0.73 0.24 1.46 0.48 2.2 0.73 0.84 0.28 1.68 0.55 2.55 0.83 1.28 0.41 2.57 0.82 3.87 1.21 1.66 0.51 3.34 1.01 5.06 1.51 0.78 0.23 1.59 0.46 2.38 0.69 0.81 0.22 1.61 0.45 2.42 0.68 0.82 0.22 1.62 0.45 2.45 0.67 0.78 0.23 1.61 0.45 2.44 0.67z"/> <path class="st5" d="m458.36 467.91v102.54c-0.48-0.12-0.97-0.24-1.45-0.36-0.43-0.1-0.85-0.21-1.27-0.31-0.03-0.01-0.07-0.02-0.1-0.02-0.28-0.08-0.54-0.15-0.82-0.22-0.59-0.15-1.19-0.3-1.76-0.45-1.7-0.44-3.38-0.88-5.03-1.31-0.08-0.02-0.16-0.05-0.25-0.07-0.21-0.06-0.43-0.12-0.63-0.17-1.52-0.41-3.02-0.83-4.5-1.26h-0.01c-1.49-0.43-2.96-0.85-4.41-1.28-0.28-0.08-0.56-0.17-0.84-0.25-1.16-0.35-2.32-0.7-3.46-1.05-0.2-0.06-0.38-0.13-0.56-0.17-0.2-0.07-0.39-0.13-0.59-0.18-0.79-0.25-1.59-0.51-2.38-0.76-0.78-0.25-1.57-0.51-2.34-0.76-0.97-0.32-1.91-0.63-2.86-0.96-0.58-0.2-1.15-0.4-1.73-0.6-0.45-0.15-0.9-0.31-1.34-0.46-0.24-0.09-0.48-0.17-0.73-0.26-0.06-0.01-0.12-0.03-0.17-0.06-1.47-0.53-2.93-1.06-4.35-1.59-0.94-0.36-1.88-0.71-2.8-1.07-0.47-0.18-0.94-0.37-1.41-0.55l-0.41-0.17c-0.16-0.06-0.33-0.13-0.5-0.18-0.2-0.08-0.38-0.16-0.56-0.23-0.47-0.2-0.94-0.38-1.41-0.58-0.44-0.18-0.86-0.36-1.29-0.53-0.52-0.23-1.04-0.44-1.54-0.67-0.1-0.03-0.21-0.08-0.31-0.13-0.47-0.2-0.93-0.4-1.39-0.61-0.3-0.13-0.59-0.25-0.89-0.39-0.24-0.1-0.47-0.21-0.71-0.32-1.74-0.77-3.43-1.57-5.07-2.37-0.81-0.39-1.59-0.78-2.36-1.18h-0.01c-0.73-0.38-1.44-0.75-2.13-1.12-0.21-0.1-0.4-0.21-0.6-0.31-0.44-0.24-0.85-0.47-1.28-0.7-0.77-0.41-1.52-0.84-2.26-1.27-0.92-0.53-1.82-1.07-2.68-1.6-0.18-0.12-0.36-0.22-0.53-0.33-0.5-0.3-0.98-0.61-1.45-0.92-0.18-0.12-0.37-0.23-0.55-0.36-0.75-0.48-1.49-0.98-2.19-1.47-0.47-0.32-0.92-0.65-1.37-0.98-0.23-0.15-0.45-0.31-0.67-0.48-0.15-0.1-0.3-0.22-0.45-0.33-0.37-0.28-0.73-0.55-1.08-0.83-0.65-0.5-1.27-1-1.88-1.52-0.07-0.05-0.13-0.09-0.18-0.15-0.03-0.02-0.07-0.06-0.09-0.08-0.16-0.14-0.32-0.28-0.48-0.41-0.47-0.4-0.93-0.81-1.38-1.22-0.56-0.52-1.11-1.05-1.64-1.58-0.24-0.23-0.47-0.47-0.7-0.71-0.08-0.07-0.15-0.15-0.22-0.23-0.13-0.13-0.25-0.25-0.37-0.39-0.15-0.15-0.3-0.31-0.43-0.47-0.16-0.16-0.3-0.32-0.45-0.5-0.01 0-0.02-0.02-0.02-0.03-0.1-0.1-0.2-0.22-0.29-0.33-0.15-0.17-0.3-0.36-0.45-0.53-0.1-0.12-0.2-0.23-0.28-0.35-0.09-0.09-0.17-0.2-0.24-0.3-0.16-0.18-0.3-0.37-0.44-0.56-0.15-0.17-0.29-0.36-0.41-0.54-0.18-0.25-0.37-0.51-0.54-0.76-0.12-0.15-0.22-0.3-0.3-0.45-0.07-0.08-0.13-0.16-0.17-0.24-0.14-0.22-0.28-0.43-0.4-0.63-0.01-0.01-0.02-0.02-0.02-0.03-0.06-0.12-0.13-0.22-0.2-0.32-0.12-0.17-0.22-0.35-0.31-0.52 0 0-0.01 0 0-0.01-0.08-0.12-0.15-0.23-0.21-0.36-0.15-0.24-0.28-0.5-0.4-0.75-0.15-0.27-0.28-0.53-0.39-0.78-0.13-0.23-0.23-0.46-0.32-0.69-0.51-1.09-0.91-2.19-1.21-3.29-0.08-0.25-0.15-0.51-0.21-0.76-0.07-0.29-0.14-0.58-0.2-0.86-0.07-0.35-0.14-0.69-0.18-1.04-0.03-0.22-0.07-0.44-0.09-0.66-0.02-0.15-0.03-0.3-0.05-0.45-0.07-0.67-0.1-1.35-0.1-2.03v-102.59c0 0.68 0.03 1.36 0.1 2.03 0.01 0.15 0.02 0.3 0.05 0.45 0.02 0.22 0.06 0.44 0.09 0.66 0.05 0.35 0.12 0.69 0.18 1.04 0.06 0.29 0.13 0.58 0.2 0.86 0.05 0.22 0.1 0.44 0.17 0.65 0.31 1.15 0.73 2.28 1.24 3.41 0.09 0.23 0.2 0.46 0.32 0.69 0.12 0.25 0.24 0.52 0.39 0.78 0.13 0.25 0.25 0.5 0.4 0.75 0.16 0.3 0.33 0.59 0.52 0.89 0.06 0.1 0.13 0.21 0.2 0.32 0.14 0.22 0.28 0.44 0.43 0.67s0.3 0.46 0.47 0.69c0.17 0.25 0.36 0.51 0.54 0.76 0.16 0.23 0.33 0.45 0.51 0.67 0.23 0.3 0.46 0.6 0.71 0.9 0.09 0.13 0.2 0.25 0.31 0.38 0 0.01 0.01 0.01 0.01 0.02h0.01c4.83 5.77 12.14 11.31 21.63 16.53 0.43 0.23 0.84 0.46 1.28 0.7 2.91 1.57 6.04 3.1 9.35 4.61 0.62 0.29 1.24 0.58 1.89 0.85 0.63 0.28 1.28 0.56 1.92 0.84 0.4 0.17 0.81 0.35 1.22 0.52 0.63 0.26 1.27 0.54 1.92 0.81 0.65 0.26 1.3 0.53 1.97 0.79 0.67 0.28 1.34 0.54 2 0.79 0.67 0.26 1.35 0.53 2.04 0.78 6.29 2.4 13.08 4.7 20.32 6.89 0.65 0.2 1.3 0.39 1.96 0.59 1.26 0.37 2.51 0.74 3.79 1.11 0.01 0 0.02 0 0.03 0.01 0.24 0.07 0.5 0.14 0.74 0.21 1.37 0.39 2.76 0.77 4.17 1.16 2.41 0.66 4.86 1.3 7.35 1.94 1.36 0.35 2.74 0.69 4.12 1.03 0.05 0 0.12 0.02 0.18 0.03z"/> <path class="st5" d="m451.55 227.28v-100.13c-44.37-13.49-71.3-31.18-71.3-50.55v100.13c0 19.37 26.93 37.06 71.3 50.55z"/> </svg>